RobotoDelta-opszmax-wdthmax.ufo
<glyph name="quotesingle" format="1">
  <advance width="332"/>
  <unicode hex="0027"/>
  <outline>
    <contour>
      <point x="117" y="1102" type="line"/>
      <point x="217" y="1102" type="line"/>
      <point x="232" y="1358" type="line"/>
      <point x="232" y="1456" type="line"/>
      <point x="100" y="1456" type="line"/>
      <point x="100" y="1358" type="line"/>
    </contour>
  </outline>
</glyph>
<glyph name="parenleft" format="1">
  <advance width="621"/>
  <unicode hex="0028"/>
  <outline>
    <contour>
      <point x="632" y="-436" type="qcurve"/>
      <point x="632" y="-345" type="line"/>
      <point x="461.33965540378676" y="-282.1785050297274"/>
      <point x="241" y="142.3037974683544"/>
      <point x="241" y="508" type="qcurve" smooth="yes"/>
      <point x="241" y="532" type="line" smooth="yes"/>
      <point x="241" y="897.6962025316457"/>
      <point x="461.33965540378676" y="1322.1785050297274"/>
      <point x="632" y="1385" type="qcurve"/>
      <point x="632" y="1476" type="line"/>
      <point x="406" y="1408"/>
      <point x="124" y="917"/>
      <point x="124" y="525" type="qcurve" smooth="yes"/>
      <point x="124" y="515" type="line" smooth="yes"/>
      <point x="124" y="123"/>
      <point x="406" y="-368"/>
    </contour>
  </outline>
</glyph>
<glyph name="zero" format="1">
  <advance width="950"/>
  <unicode hex="0030"/>
  <outline>
    <contour>
      <point x="38" y="487" type="line" smooth="yes"/>
      <point x="38" y="235"/>
      <point x="267" y="-20"/>
      <point x="474" y="-20" type="qcurve" smooth="yes"/>
      <point x="681" y="-20"/>
      <point x="912" y="235"/>
      <point x="912" y="487" type="qcurve" smooth="yes"/>
      <point x="912" y="969" type="line" smooth="yes"/>
      <point x="912" y="1219"/>
      <point x="681" y="1476"/>
      <point x="474" y="1476" type="qcurve" smooth="yes"/>
      <point x="267" y="1476"/>
      <point x="38" y="1219"/>
      <point x="38" y="969" type="qcurve" smooth="yes"/>
    </contour>
    <contour>
      <point x="160" y="477" type="qcurve" smooth="yes"/>
      <point x="160" y="979" type="line" smooth="yes"/>
      <point x="160" y="1170.6285714285714"/>
      <point x="315.0" y="1374.0"/>
      <point x="474" y="1374" type="qcurve" smooth="yes"/>
      <point x="634.0" y="1374.0"/>
      <point x="790" y="1170.6285714285714"/>
      <point x="790" y="979" type="qcurve" smooth="yes"/>
      <point x="790" y="477" type="line" smooth="yes"/>
      <point x="790" y="283.37142857142857"/>
      <point x="634.0" y="82.0"/>
      <point x="474" y="82" type="qcurve" smooth="yes"/>
      <point x="315.0" y="82.0"/>
      <point x="160" y="283.37142857142857"/>
    </contour>
  </outline>
</glyph>
<glyph name="two" format="1">
  <advance width="950"/>
  <unicode hex="0032"/>
  <outline>
    <contour>
      <point x="19" y="0" type="line"/>
      <point x="920" y="0" type="line"/>
      <point x="920" y="102" type="line"/>
      <point x="174" y="102" type="line"/>
      <point x="644" y="642" type="line" smooth="yes"/>
      <point x="776" y="793"/>
      <point x="882" y="999"/>
      <point x="882" y="1121" type="qcurve" smooth="yes"/>
      <point x="882" y="1283"/>
      <point x="654" y="1476"/>
      <point x="463" y="1476" type="qcurve" smooth="yes"/>
      <point x="254" y="1476"/>
      <point x="19" y="1265"/>
      <point x="19" y="1073" type="qcurve" smooth="yes"/>
      <point x="19" y="1053" type="line"/>
      <point x="140" y="1053" type="line"/>
      <point x="140" y="1073" type="line" smooth="yes"/>
      <point x="140" y="1234"/>
      <point x="311" y="1374"/>
      <point x="460" y="1374" type="qcurve" smooth="yes"/>
      <point x="597" y="1374"/>
      <point x="761" y="1246"/>
      <point x="761" y="1111" type="qcurve" smooth="yes"/>
      <point x="761" y="1014"/>
      <point x="631" y="793"/>
      <point x="549" y="699" type="qcurve" smooth="yes"/>
      <point x="19" y="90" type="line"/>
    </contour>
  </outline>
</glyph>
<glyph name="four" format="1">
  <advance width="950"/>
  <unicode hex="0034"/>
  <outline>
    <contour>
      <point x="637" y="0" type="line"/>
      <point x="760" y="0" type="line"/>
      <point x="760" y="1456" type="line"/>
      <point x="640" y="1456" type="line"/>
      <point x="1" y="458" type="line"/>
      <point x="1" y="348" type="line"/>
      <point x="978" y="348" type="line"/>
      <point x="978" y="449" type="line"/>
      <point x="687" y="449" type="line"/>
      <point x="652" y="449" type="line"/>
      <point x="132" y="449" type="line"/>
      <point x="629" y="1241" type="line"/>
      <point x="637" y="1241" type="line"/>
      <point x="637" y="405" type="line"/>
      <point x="637" y="391" type="line"/>
    </contour>
  </outline>
</glyph>
<glyph name="eight" format="1">
  <advance width="950"/>
  <unicode hex="0038"/>
  <outline>
    <contour>
      <point x="27" y="377" type="qcurve" smooth="yes"/>
      <point x="27" y="183"/>
      <point x="290" y="-20"/>
      <point x="477" y="-20" type="qcurve" smooth="yes"/>
      <point x="662" y="-20"/>
      <point x="926" y="183"/>
      <point x="926" y="377" type="qcurve" smooth="yes"/>
      <point x="926" y="528"/>
      <point x="777" y="719"/>
      <point x="663" y="746" type="qcurve"/>
      <point x="663" y="750" type="line"/>
      <point x="753" y="780"/>
      <point x="876" y="958"/>
      <point x="876" y="1096" type="qcurve" smooth="yes"/>
      <point x="876" y="1272"/>
      <point x="653" y="1476"/>
      <point x="477" y="1476" type="qcurve" smooth="yes"/>
      <point x="300" y="1476"/>
      <point x="76" y="1282"/>
      <point x="76" y="1096" type="qcurve" smooth="yes"/>
      <point x="76" y="966"/>
      <point x="193" y="782"/>
      <point x="289" y="747" type="qcurve"/>
      <point x="289" y="743" type="line"/>
      <point x="176" y="716"/>
      <point x="27" y="525"/>
    </contour>
    <contour>
      <point x="149" y="381" type="qcurve" smooth="yes"/>
      <point x="149.0" y="523.2962962962963"/>
      <point x="331.0" y="696.0"/>
      <point x="476" y="696" type="qcurve" smooth="yes"/>
      <point x="622.0" y="696.0"/>
      <point x="803.0" y="522.2861538461538"/>
      <point x="803" y="380" type="qcurve" smooth="yes"/>
      <point x="803.0" y="236.22151898734177"/>
      <point x="622.0" y="78.0"/>
      <point x="476" y="78" type="qcurve" smooth="yes"/>
      <point x="331.0" y="78.0"/>
      <point x="149.0" y="236.2744479495268"/>
    </contour>
    <contour>
      <point x="195" y="1093" type="qcurve" smooth="yes"/>
      <point x="195.0" y="1233.5551839464883"/>
      <point x="344.0" y="1378.0"/>
      <point x="476" y="1378" type="qcurve" smooth="yes"/>
      <point x="608.0" y="1378.0"/>
      <point x="757.0" y="1225.8494983277592"/>
      <point x="757" y="1093" type="qcurve" smooth="yes"/>
      <point x="757.0" y="961.6493506493506"/>
      <point x="600.0" y="794.0"/>
      <point x="476" y="794" type="qcurve" smooth="yes"/>
      <point x="353.0" y="794.0"/>
      <point x="195.0" y="961.6493506493506"/>
    </contour>
  </outline>
</glyph>
<glyph name="semicolon" format="1">
  <advance width="526"/>
  <unicode hex="003B"/>
  <outline>
    <contour>
      <point x="148" y="-147" type="qcurve"/>
      <point x="228" y="-187" type="line"/>
      <point x="277" y="-141"/>
      <point x="329" y="-25"/>
      <point x="329" y="52" type="qcurve" smooth="yes"/>
      <point x="329" y="158" type="line"/>
      <point x="220" y="158" type="line"/>
      <point x="220" y="52" type="line" smooth="yes"/>
      <point x="220" y="-9"/>
      <point x="180" y="-102"/>
    </contour>
    <contour>
      <point x="179" y="841" type="qcurve" smooth="yes"/>
      <point x="179" y="805"/>
      <point x="222" y="754"/>
      <point x="263" y="754" type="qcurve" smooth="yes"/>
      <point x="305" y="754"/>
      <point x="347" y="806"/>
      <point x="347" y="842" type="qcurve" smooth="yes"/>
      <point x="347" y="879"/>
      <point x="304" y="929"/>
      <point x="262" y="929" type="qcurve" smooth="yes"/>
      <point x="221" y="929"/>
      <point x="179" y="879"/>
    </contour>
  </outline>
</glyph>
<glyph name="question" format="1">
  <advance width="844"/>
  <unicode hex="003F"/>
  <outline>
    <contour>
      <point x="281" y="69" type="qcurve" smooth="yes"/>
      <point x="281" y="32"/>
      <point x="327" y="-22"/>
      <point x="369" y="-22" type="qcurve" smooth="yes"/>
      <point x="411" y="-22"/>
      <point x="456" y="32"/>
      <point x="456" y="69" type="qcurve" smooth="yes"/>
      <point x="456" y="106"/>
      <point x="411" y="160"/>
      <point x="369" y="160" type="qcurve" smooth="yes"/>
      <point x="326" y="160"/>
      <point x="281" y="106"/>
    </contour>
    <contour>
      <point x="27" y="1083" type="line"/>
      <point x="149" y="1083" type="line"/>
      <point x="149" y="1105" type="line" smooth="yes"/>
      <point x="149" y="1231.4406779661017"/>
      <point x="283.0" y="1379.0"/>
      <point x="411" y="1379" type="qcurve" smooth="yes"/>
      <point x="538.0" y="1379.0"/>
      <point x="664.0" y="1239.1363636363637"/>
      <point x="664" y="1137" type="qcurve" smooth="yes"/>
      <point x="664.0" y="1025.3048433048434"/>
      <point x="580.7634300345818" y="884.6048954236308"/>
      <point x="490" y="797" type="qcurve" smooth="yes"/>
      <point x="400.7615090709877" y="713.6066977048612"/>
      <point x="305" y="542.0578512396694"/>
      <point x="305" y="427" type="qcurve" smooth="yes"/>
      <point x="305" y="417" type="line"/>
      <point x="429" y="417" type="line"/>
      <point x="429" y="427" type="line" smooth="yes"/>
      <point x="429" y="503.81388012618294"/>
      <point x="497.31154335106294" y="636.4853623493966"/>
      <point x="597" y="735" type="qcurve" smooth="yes"/>
      <point x="693.0844066940958" y="832.2542535257012"/>
      <point x="785.0" y="996.8261964735516"/>
      <point x="785" y="1137" type="qcurve" smooth="yes"/>
      <point x="785" y="1278"/>
      <point x="586" y="1476"/>
      <point x="410" y="1476" type="qcurve" smooth="yes"/>
      <point x="233" y="1476"/>
      <point x="27" y="1271"/>
      <point x="27" y="1105" type="qcurve" smooth="yes"/>
    </contour>
  </outline>
</glyph>
<glyph name="at" format="1">
  <advance width="2191"/>
  <unicode hex="0040"/>
  <outline>
    <contour>
      <point x="690" y="400" type="qcurve" smooth="yes"/>
      <point x="690" y="220"/>
      <point x="847" y="0"/>
      <point x="980" y="0" type="qcurve" smooth="yes"/>
      <point x="1071" y="0"/>
      <point x="1224" y="100"/>
      <point x="1262" y="189" type="qcurve"/>
      <point x="1298" y="102"/>
      <point x="1454" y="0"/>
      <point x="1568" y="0" type="qcurve" smooth="yes"/>
      <point x="1781" y="0"/>
      <point x="2077" y="360"/>
      <point x="2077" y="650" type="qcurve" smooth="yes"/>
      <point x="2077" y="1000"/>
      <point x="1569" y="1486"/>
      <point x="1143" y="1486" type="qcurve" smooth="yes"/>
      <point x="718" y="1486"/>
      <point x="114" y="880"/>
      <point x="114" y="460" type="qcurve" smooth="yes"/>
      <point x="114" y="40"/>
      <point x="652" y="-446"/>
      <point x="1035" y="-446" type="qcurve" smooth="yes"/>
      <point x="1186" y="-446"/>
      <point x="1393" y="-400"/>
      <point x="1470" y="-356" type="qcurve"/>
      <point x="1470" y="-262" type="line"/>
      <point x="1397" y="-298"/>
      <point x="1186" y="-352"/>
      <point x="1035" y="-352" type="qcurve" smooth="yes"/>
      <point x="690.0" y="-352.0"/>
      <point x="230.0" y="70.59330143540672"/>
      <point x="230" y="460" type="qcurve" smooth="yes"/>
      <point x="230.0" y="844.7364016736401"/>
      <point x="755.0" y="1392.0"/>
      <point x="1143" y="1392" type="qcurve" smooth="yes"/>
      <point x="1533.0" y="1392.0"/>
      <point x="1963.0" y="944.0626631853786"/>
      <point x="1963" y="650" type="qcurve" smooth="yes"/>
      <point x="1963.0" y="399.95368782161233"/>
      <point x="1746.0" y="90.0"/>
      <point x="1576" y="90" type="qcurve" smooth="yes"/>
      <point x="1465.0" y="90.0"/>
      <point x="1332.8464108329526" y="202.21086945206662"/>
      <point x="1364" y="350" type="qcurve" smooth="yes"/>
      <point x="1496" y="946" type="line"/>
      <point x="1424" y="946" type="line"/>
      <point x="1387" y="979"/>
      <point x="1253" y="1052"/>
      <point x="1176" y="1052" type="qcurve" smooth="yes"/>
      <point x="976" y="1052"/>
      <point x="690" y="680"/>
    </contour>
    <contour>
      <point x="798" y="400" type="qcurve" smooth="yes"/>
      <point x="798.0" y="640.3893653516295"/>
      <point x="1018.0" y="959.0"/>
      <point x="1186" y="959" type="qcurve" smooth="yes"/>
      <point x="1237.8947368421052" y="959.0"/>
      <point x="1341.3801939694056" y="926.6479685468465"/>
      <point x="1376" y="900" type="qcurve"/>
      <point x="1267" y="398" type="line" smooth="yes"/>
      <point x="1229.9825599707967" y="228.57717641580575"/>
      <point x="1091.0" y="91.0"/>
      <point x="1002" y="91" type="qcurve" smooth="yes"/>
      <point x="902.0" y="91.0"/>
      <point x="798.0" y="247.81927710843374"/>
    </contour>
  </outline>
</glyph>
<glyph name="A" format="1">
  <advance width="1182"/>
  <unicode hex="0041"/>
  <outline>
    <contour>
      <point x="-10" y="0" type="line"/>
      <point x="110" y="0" type="line"/>
      <point x="517" y="1238" type="line" smooth="yes"/>
      <point x="536" y="1292"/>
      <point x="567" y="1371"/>
      <point x="582" y="1417" type="qcurve"/>
      <point x="587" y="1417" type="line"/>
      <point x="602" y="1371"/>
      <point x="632" y="1292"/>
      <point x="652" y="1238" type="qcurve" smooth="yes"/>
      <point x="1065" y="0" type="line"/>
      <point x="1192" y="0" type="line"/>
      <point x="686" y="1455" type="line"/>
      <point x="499" y="1455" type="line"/>
    </contour>
    <contour>
      <point x="200" y="414" type="line"/>
      <point x="980" y="414" type="line"/>
      <point x="942" y="511" type="line"/>
      <point x="236" y="511" type="line"/>
    </contour>
    <contour>
      <point x="640.0" y="1432.0" type="move" name="top"/>
    </contour>
  </outline>
</glyph>
<glyph name="C" format="1">
  <advance width="1250"/>
  <unicode hex="0043"/>
  <outline>
    <contour>
      <point x="86" y="704" type="line" smooth="yes"/>
      <point x="86" y="330"/>
      <point x="407" y="-19"/>
      <point x="673" y="-19" type="qcurve" smooth="yes"/>
      <point x="919" y="-19"/>
      <point x="1203" y="229"/>
      <point x="1202" y="434" type="qcurve" smooth="yes"/>
      <point x="1202" y="474" type="line"/>
      <point x="1079" y="474" type="line"/>
      <point x="1079" y="444" type="line" smooth="yes"/>
      <point x="1079" y="272.7351232617784"/>
      <point x="874.0" y="82.0"/>
      <point x="673" y="82" type="qcurve" smooth="yes"/>
      <point x="461.0" y="82.0"/>
      <point x="208" y="390.0482315112541"/>
      <point x="208" y="704" type="qcurve" smooth="yes"/>
      <point x="208" y="752" type="line" smooth="yes"/>
      <point x="208" y="1068.903536977492"/>
      <point x="452.0" y="1374.0"/>
      <point x="673" y="1374" type="qcurve" smooth="yes"/>
      <point x="874.0" y="1374.0"/>
      <point x="1080.9466754386303" y="1162.8140219324819"/>
      <point x="1079" y="1012" type="qcurve" smooth="yes"/>
      <point x="1079" y="982" type="line"/>
      <point x="1202" y="982" type="line"/>
      <point x="1202" y="1022" type="line" smooth="yes"/>
      <point x="1203" y="1233"/>
      <point x="919" y="1475"/>
      <point x="673" y="1475" type="qcurve" smooth="yes"/>
      <point x="415" y="1475"/>
      <point x="86" y="1133"/>
      <point x="86" y="752" type="qcurve" smooth="yes"/>
    </contour>
    <contour>
      <point x="720" y="0" type="move" name="bottom"/>
    </contour>
  </outline>
</glyph>
<glyph name="E" format="1">
  <advance width="993"/>
  <unicode hex="0045"/>
  <outline>
    <contour>
      <point x="130" y="0" type="line"/>
      <point x="997" y="0" type="line"/>
      <point x="997" y="101" type="line"/>
      <point x="250" y="101" type="line"/>
      <point x="250" y="701" type="line"/>
      <point x="876" y="701" type="line"/>
      <point x="876" y="801" type="line"/>
      <point x="250" y="801" type="line"/>
      <point x="250" y="1355" type="line"/>
      <point x="986" y="1355" type="line"/>
      <point x="986" y="1456" type="line"/>
      <point x="130" y="1456" type="line"/>
    </contour>
    <contour>
      <point x="626" y="1432" type="move" name="top"/>
    </contour>
  </outline>
</glyph>
<glyph name="I" format="1">
  <advance width="400"/>
  <unicode hex="0049"/>
  <outline>
    <contour>
      <point x="140" y="0" type="line"/>
      <point x="259" y="0" type="line"/>
      <point x="259" y="1456" type="line"/>
      <point x="140" y="1456" type="line"/>
    </contour>
    <contour>
      <point x="149" y="1456" type="move" name="top"/>
    </contour>
  </outline>
</glyph>
<glyph name="K" format="1">
  <advance width="1095"/>
  <unicode hex="004B"/>
  <outline>
    <contour>
      <point x="130" y="0" type="line"/>
      <point x="250" y="0" type="line"/>
      <point x="250" y="530" type="line"/>
      <point x="1110" y="1456" type="line"/>
      <point x="943" y="1456" type="line"/>
      <point x="250" y="693" type="line"/>
      <point x="250" y="1456" type="line"/>
      <point x="130" y="1456" type="line"/>
    </contour>
    <contour>
      <point x="975" y="0" type="line"/>
      <point x="1132" y="0" type="line"/>
      <point x="513" y="839" type="line"/>
      <point x="415" y="772" type="line"/>
    </contour>
  </outline>
</glyph>
<glyph name="M" format="1">
  <advance width="1670"/>
  <unicode hex="004D"/>
  <outline>
    <contour>
      <point x="130" y="0" type="line"/>
      <point x="231" y="0" type="line"/>
      <point x="231" y="1179" type="line" smooth="yes"/>
      <point x="231" y="1213"/>
      <point x="227" y="1297"/>
      <point x="225" y="1331" type="qcurve"/>
      <point x="231" y="1331" type="line"/>
      <point x="237" y="1297"/>
      <point x="262" y="1213"/>
      <point x="276" y="1179" type="qcurve" smooth="yes"/>
      <point x="768" y="0" type="line"/>
      <point x="884" y="0" type="line"/>
      <point x="1377" y="1179" type="line" smooth="yes"/>
      <point x="1390" y="1213"/>
      <point x="1415" y="1295"/>
      <point x="1422" y="1331" type="qcurve"/>
      <point x="1425" y="1331" type="line"/>
      <point x="1422" y="1297"/>
      <point x="1421" y="1213"/>
      <point x="1421" y="1179" type="qcurve" smooth="yes"/>
      <point x="1421" y="0" type="line"/>
      <point x="1540" y="0" type="line"/>
      <point x="1540" y="1456" type="line"/>
      <point x="1387" y="1456" type="line"/>
      <point x="884" y="239" type="line" smooth="yes"/>
      <point x="870" y="205"/>
      <point x="846" y="139"/>
      <point x="838" y="102" type="qcurve"/>
      <point x="833" y="102" type="line"/>
      <point x="825" y="139"/>
      <point x="802" y="205"/>
      <point x="788" y="239" type="qcurve" smooth="yes"/>
      <point x="286" y="1456" type="line"/>
      <point x="130" y="1456" type="line"/>
    </contour>
  </outline>
</glyph>
<glyph name="N" format="1">
  <advance width="1306"/>
  <unicode hex="004E"/>
  <outline>
    <contour>
      <point x="130" y="0" type="line"/>
      <point x="237" y="0" type="line"/>
      <point x="237" y="1169" type="line" smooth="yes"/>
      <point x="237" y="1204"/>
      <point x="236" y="1281"/>
      <point x="234" y="1315" type="qcurve"/>
      <point x="238" y="1315" type="line"/>
      <point x="258" y="1272"/>
      <point x="279" y="1230"/>
      <point x="304" y="1189" type="qcurve" smooth="yes"/>
      <point x="1044" y="0" type="line"/>
      <point x="1176" y="0" type="line"/>
      <point x="1176" y="1456" type="line"/>
      <point x="1067" y="1456" type="line"/>
      <point x="1067" y="283" type="line" smooth="yes"/>
      <point x="1067" y="249"/>
      <point x="1066" y="175"/>
      <point x="1067" y="141" type="qcurve"/>
      <point x="1063" y="141" type="line"/>
      <point x="1052" y="171"/>
      <point x="1021" y="231"/>
      <point x="1001" y="263" type="qcurve" smooth="yes"/>
      <point x="259" y="1456" type="line"/>
      <point x="130" y="1456" type="line"/>
    </contour>
  </outline>
</glyph>
<glyph name="O" format="1">
  <advance width="1353"/>
  <unicode hex="004F"/>
  <outline>
    <contour>
      <point x="86" y="704" type="line" smooth="yes"/>
      <point x="86" y="328"/>
      <point x="413" y="-20"/>
      <point x="676" y="-20" type="qcurve" smooth="yes"/>
      <point x="940" y="-20"/>
      <point x="1267" y="328"/>
      <point x="1267" y="704" type="qcurve" smooth="yes"/>
      <point x="1267" y="752" type="line" smooth="yes"/>
      <point x="1267" y="1128"/>
      <point x="940" y="1476"/>
      <point x="676" y="1476" type="qcurve" smooth="yes"/>
      <point x="412" y="1476"/>
      <point x="86" y="1128"/>
      <point x="86" y="752" type="qcurve" smooth="yes"/>
    </contour>
    <contour>
      <point x="208" y="704" type="qcurve" smooth="yes"/>
      <point x="208" y="752" type="line" smooth="yes"/>
      <point x="208" y="1090"/>
      <point x="462" y="1375"/>
      <point x="676" y="1375" type="qcurve" smooth="yes"/>
      <point x="890" y="1375"/>
      <point x="1144" y="1090"/>
      <point x="1144" y="752" type="qcurve" smooth="yes"/>
      <point x="1144" y="704" type="line" smooth="yes"/>
      <point x="1144" y="366"/>
      <point x="890" y="81"/>
      <point x="676" y="81" type="qcurve" smooth="yes"/>
      <point x="462" y="81"/>
      <point x="208" y="366"/>
    </contour>
  </outline>
</glyph>
<glyph name="Q" format="1">
  <advance width="1353"/>
  <unicode hex="0051"/>
  <outline>
    <contour>
      <point x="86" y="704" type="line" smooth="yes"/>
      <point x="86" y="338"/>
      <point x="413" y="-20"/>
      <point x="676" y="-20" type="qcurve" smooth="yes"/>
      <point x="940" y="-20"/>
      <point x="1267" y="338"/>
      <point x="1267" y="704" type="qcurve" smooth="yes"/>
      <point x="1267" y="752" type="line" smooth="yes"/>
      <point x="1267" y="1128"/>
      <point x="940" y="1476"/>
      <point x="676" y="1476" type="qcurve" smooth="yes"/>
      <point x="412" y="1476"/>
      <point x="86" y="1128"/>
      <point x="86" y="752" type="qcurve" smooth="yes"/>
    </contour>
    <contour>
      <point x="208" y="704" type="qcurve" smooth="yes"/>
      <point x="208" y="752" type="line" smooth="yes"/>
      <point x="208" y="1090.1093247588424"/>
      <point x="462.0" y="1375.0"/>
      <point x="676" y="1375" type="qcurve" smooth="yes"/>
      <point x="890.0" y="1375.0"/>
      <point x="1144" y="1090.1093247588424"/>
      <point x="1144" y="752" type="qcurve" smooth="yes"/>
      <point x="1144" y="704" type="line" smooth="yes"/>
      <point x="1144" y="375.7459807073955"/>
      <point x="890.0" y="81.0"/>
      <point x="676" y="81" type="qcurve" smooth="yes"/>
      <point x="462.0" y="81.0"/>
      <point x="208" y="375.7459807073955"/>
    </contour>
    <contour>
      <point x="1218" y="-226" type="line"/>
      <point x="1294" y="-145" type="line"/>
      <point x="818" y="280" type="line"/>
      <point x="746" y="201" type="line"/>
    </contour>
  </outline>
</glyph>
<glyph name="R" format="1">
  <advance width="1101"/>
  <unicode hex="0052"/>
  <outline>
    <contour>
      <point x="130" y="0" type="line"/>
      <point x="250" y="0" type="line"/>
      <point x="250" y="622" type="line"/>
      <point x="565" y="622" type="line" smooth="yes"/>
      <point x="796" y="622"/>
      <point x="1032" y="855"/>
      <point x="1032" y="1041" type="qcurve" smooth="yes"/>
      <point x="1032" y="1226"/>
      <point x="796" y="1456"/>
      <point x="565" y="1456" type="qcurve" smooth="yes"/>
      <point x="130" y="1456" type="line"/>
    </contour>
    <contour>
      <point x="250" y="721" type="line"/>
      <point x="250" y="1355" type="line"/>
      <point x="565" y="1355" type="line" smooth="yes"/>
      <point x="758.0" y="1355"/>
      <point x="912.0" y="1179.565749235474"/>
      <point x="912" y="1040" type="qcurve" smooth="yes"/>
      <point x="912.0" y="901.3373493975904"/>
      <point x="758.0029580425457" y="721"/>
      <point x="565" y="721" type="qcurve" smooth="yes"/>
    </contour>
    <contour>
      <point x="945" y="0" type="line"/>
      <point x="1092" y="0" type="line"/>
      <point x="698" y="667" type="line"/>
      <point x="560" y="667" type="line"/>
    </contour>
  </outline>
</glyph>
<glyph name="U" format="1">
  <advance width="1241"/>
  <unicode hex="0055"/>
  <outline>
    <contour>
      <point x="120" y="526" type="line" smooth="yes"/>
      <point x="120" y="248"/>
      <point x="384" y="-20"/>
      <point x="621" y="-20" type="qcurve" smooth="yes"/>
      <point x="858" y="-20"/>
      <point x="1121" y="248"/>
      <point x="1121" y="526" type="qcurve" smooth="yes"/>
      <point x="1121" y="1456" type="line"/>
      <point x="1001" y="1456" type="line"/>
      <point x="1001" y="526" type="line" smooth="yes"/>
      <point x="1001" y="291.3333333333333"/>
      <point x="799.0" y="81.0"/>
      <point x="622" y="81" type="qcurve" smooth="yes"/>
      <point x="442.0" y="81.0"/>
      <point x="239" y="291.3333333333333"/>
      <point x="239" y="526" type="qcurve" smooth="yes"/>
      <point x="239" y="1456" type="line"/>
      <point x="120" y="1456" type="line"/>
    </contour>
    <contour>
      <point x="570" y="1456" type="move" name="top"/>
    </contour>
  </outline>
</glyph>
<glyph name="V" format="1">
  <advance width="1170"/>
  <unicode hex="0056"/>
  <outline>
    <contour>
      <point x="-10" y="1456" type="line"/>
      <point x="498" y="-9" type="line"/>
      <point x="672" y="-9" type="line"/>
      <point x="1180" y="1456" type="line"/>
      <point x="1063" y="1456" type="line"/>
      <point x="653" y="220" type="line" smooth="yes"/>
      <point x="642" y="190"/>
      <point x="608" y="108"/>
      <point x="592" y="71" type="qcurve"/>
      <point x="590" y="71" type="line"/>
      <point x="577" y="103"/>
      <point x="544" y="183"/>
      <point x="529" y="220" type="qcurve" smooth="yes"/>
      <point x="120" y="1456" type="line"/>
    </contour>
  </outline>
</glyph>
<glyph name="W" format="1">
  <advance width="1799"/>
  <unicode hex="0057"/>
  <outline>
    <contour>
      <point x="398" y="-9" type="line"/>
      <point x="540" y="-9" type="line"/>
      <point x="876" y="1244" type="line" smooth="yes"/>
      <point x="881" y="1262"/>
      <point x="893" y="1319"/>
      <point x="898" y="1353" type="qcurve"/>
      <point x="901" y="1353" type="line"/>
      <point x="907" y="1319"/>
      <point x="919" y="1262"/>
      <point x="924" y="1244" type="qcurve" smooth="yes"/>
      <point x="1258" y="-9" type="line"/>
      <point x="1401" y="-9" type="line"/>
      <point x="1789" y="1456" type="line"/>
      <point x="1675" y="1456" type="line"/>
      <point x="1351" y="202" type="line" smooth="yes"/>
      <point x="1346" y="182"/>
      <point x="1336" y="125"/>
      <point x="1333" y="89" type="qcurve"/>
      <point x="1329" y="89" type="line"/>
      <point x="1324" y="126"/>
      <point x="1311" y="192"/>
      <point x="1308" y="202" type="qcurve" smooth="yes"/>
      <point x="967" y="1456" type="line"/>
      <point x="832" y="1456" type="line"/>
      <point x="491" y="202" type="line" smooth="yes"/>
      <point x="485" y="180"/>
      <point x="474" y="122"/>
      <point x="470" y="89" type="qcurve"/>
      <point x="466" y="89" type="line"/>
      <point x="462" y="125"/>
      <point x="452" y="180"/>
      <point x="447" y="202" type="qcurve" smooth="yes"/>
      <point x="136" y="1456" type="line"/>
      <point x="10" y="1456" type="line"/>
    </contour>
  </outline>
</glyph>
<glyph name="X" format="1">
  <advance width="1102"/>
  <unicode hex="0058"/>
  <outline>
    <contour>
      <point x="-10" y="0" type="line"/>
      <point x="124" y="0" type="line"/>
      <point x="576" y="710" type="line"/>
      <point x="599" y="714" type="line"/>
      <point x="1084" y="1456" type="line"/>
      <point x="949" y="1456" type="line"/>
      <point x="528" y="794" type="line"/>
      <point x="505" y="790" type="line"/>
    </contour>
    <contour>
      <point x="18" y="1456" type="line"/>
      <point x="502" y="711" type="line"/>
      <point x="505" y="707" type="line"/>
      <point x="952" y="0" type="line"/>
      <point x="1111" y="0" type="line"/>
      <point x="600" y="789" type="line"/>
      <point x="595" y="795" type="line"/>
      <point x="176" y="1456" type="line"/>
    </contour>
  </outline>
</glyph>
<glyph name="Y" format="1">
  <advance width="1185"/>
  <unicode hex="0059"/>
  <outline>
    <contour>
      <point x="533" y="0" type="line"/>
      <point x="652" y="0" type="line"/>
      <point x="652" y="584" type="line"/>
      <point x="1170" y="1456" type="line"/>
      <point x="1036" y="1456" type="line"/>
      <point x="660" y="802" type="line" smooth="yes"/>
      <point x="643" y="772"/>
      <point x="615" y="722"/>
      <point x="601" y="692" type="qcurve"/>
      <point x="597" y="692" type="line"/>
      <point x="583" y="722"/>
      <point x="555" y="772"/>
      <point x="537" y="802" type="qcurve" smooth="yes"/>
      <point x="161" y="1456" type="line"/>
      <point x="15" y="1456" type="line"/>
      <point x="533" y="584" type="line"/>
    </contour>
    <contour>
      <point x="615" y="1432" type="move" name="top"/>
    </contour>
  </outline>
</glyph>
<glyph name="Z" format="1">
  <advance width="1105"/>
  <unicode hex="005A"/>
  <outline>
    <contour>
      <point x="36" y="0" type="line"/>
      <point x="1069" y="0" type="line"/>
      <point x="1069" y="101" type="line"/>
      <point x="209" y="101" type="line"/>
      <point x="1041" y="1388" type="line"/>
      <point x="1041" y="1456" type="line"/>
      <point x="81" y="1456" type="line"/>
      <point x="81" y="1355" type="line"/>
      <point x="868" y="1355" type="line"/>
      <point x="36" y="68" type="line"/>
    </contour>
  </outline>
</glyph>
<glyph name="grave" format="1">
  <advance width="1073"/>
  <unicode hex="0060"/>
  <outline>
    <contour>
      <point x="510" y="1156" type="line"/>
      <point x="633" y="1156" type="line"/>
      <point x="386" y="1456" type="line"/>
      <point x="244" y="1456" type="line"/>
    </contour>
    <contour>
      <point x="512" y="1052" type="move" name="_top"/>
    </contour>
  </outline>
</glyph>
<glyph name="a" format="1">
  <advance width="1066"/>
  <unicode hex="0061"/>
  <outline>
    <contour>
      <point x="60" y="254" type="qcurve" smooth="yes"/>
      <point x="60" y="122"/>
      <point x="260" y="-13"/>
      <point x="429" y="-13" type="qcurve" smooth="yes"/>
      <point x="582" y="-13"/>
      <point x="787" y="86"/>
      <point x="827" y="147" type="qcurve"/>
      <point x="832" y="106"/>
      <point x="858" y="26"/>
      <point x="875" y="0" type="qcurve"/>
      <point x="987" y="0" type="line"/>
      <point x="987" y="16" type="line"/>
      <point x="965" y="59"/>
      <point x="940" y="175"/>
      <point x="940" y="240" type="qcurve" smooth="yes"/>
      <point x="940" y="645" type="line" smooth="yes"/>
      <point x="940" y="803"/>
      <point x="729.0" y="934.0"/>
      <point x="541" y="934" type="qcurve" smooth="yes"/>
      <point x="346" y="934"/>
      <point x="120" y="789"/>
      <point x="120" y="685" type="qcurve" smooth="yes"/>
      <point x="120" y="648" type="line"/>
      <point x="237" y="648" type="line"/>
      <point x="237" y="672" type="line" smooth="yes"/>
      <point x="237" y="751.2777777777778"/>
      <point x="389.0" y="839.0"/>
      <point x="539" y="839" type="qcurve" smooth="yes"/>
      <point x="691.0" y="839.0"/>
      <point x="823" y="738"/>
      <point x="823" y="645" type="qcurve" smooth="yes"/>
      <point x="823" y="552" type="line"/>
      <point x="527" y="552" type="line" smooth="yes"/>
      <point x="315.0" y="552"/>
      <point x="60.0" y="388.14878892733566"/>
    </contour>
    <contour>
      <point x="176" y="250" type="qcurve" smooth="yes"/>
      <point x="176.0" y="348.15348837209297"/>
      <point x="360.0" y="457"/>
      <point x="550" y="457" type="qcurve" smooth="yes"/>
      <point x="823" y="457" type="line"/>
      <point x="823" y="323" type="line"/>
      <point x="823" y="232"/>
      <point x="594.0" y="82.0"/>
      <point x="453" y="82" type="qcurve" smooth="yes"/>
      <point x="318.0" y="82.0"/>
      <point x="176.0" y="166.94505494505495"/>
    </contour>
  </outline>
</glyph>
<glyph name="c" format="1">
  <advance width="1018"/>
  <unicode hex="0063"/>
  <outline>
    <contour>
      <point x="56" y="442" type="line" smooth="yes"/>
      <point x="56" y="227"/>
      <point x="320" y="-20"/>
      <point x="544" y="-20" type="qcurve" smooth="yes"/>
      <point x="766" y="-20"/>
      <point x="982" y="179"/>
      <point x="982" y="316" type="qcurve" smooth="yes"/>
      <point x="982" y="331" type="line"/>
      <point x="868" y="331" type="line"/>
      <point x="868" y="316" type="line" smooth="yes"/>
      <point x="868" y="214.2629482071713"/>
      <point x="717.0" y="78.0"/>
      <point x="542" y="78" type="qcurve" smooth="yes"/>
      <point x="357.0" y="78.0"/>
      <point x="174" y="275.56464379947226"/>
      <point x="174" y="442" type="qcurve" smooth="yes"/>
      <point x="174" y="474" type="line" smooth="yes"/>
      <point x="174" y="652.0928381962865"/>
      <point x="362.0" y="836.0"/>
      <point x="544" y="836" type="qcurve" smooth="yes"/>
      <point x="717.0" y="836.0"/>
      <point x="864" y="710.5186721991702"/>
      <point x="864" y="608" type="qcurve" smooth="yes"/>
      <point x="864" y="593" type="line"/>
      <point x="982" y="593" type="line"/>
      <point x="982" y="608" type="line" smooth="yes"/>
      <point x="982" y="754"/>
      <point x="766" y="934"/>
      <point x="544" y="934" type="qcurve" smooth="yes"/>
      <point x="316" y="934"/>
      <point x="56" y="691"/>
      <point x="56" y="474" type="qcurve" smooth="yes"/>
    </contour>
    <contour>
      <point x="571.0" y="0.0" type="move" name="bottom"/>
    </contour>
  </outline>
</glyph>
<glyph name="e" format="1">
  <advance width="1035.0"/>
  <unicode hex="0065"/>
  <outline>
    <contour>
      <point x="56" y="442" type="line" smooth="yes"/>
      <point x="56" y="233"/>
      <point x="323" y="-20"/>
      <point x="572" y="-20" type="qcurve" smooth="yes"/>
      <point x="717" y="-20"/>
      <point x="928" y="82"/>
      <point x="973" y="144" type="qcurve"/>
      <point x="896" y="217" type="line"/>
      <point x="842" y="148"/>
      <point x="683.075" y="76.0"/>
      <point x="572" y="76" type="qcurve" smooth="yes"/>
      <point x="366.0" y="76.0"/>
      <point x="167" y="279.4473684210526"/>
      <point x="167" y="442" type="qcurve" smooth="yes"/>
      <point x="167" y="474" type="line" smooth="yes"/>
      <point x="167" y="636.5291005291006"/>
      <point x="355.0" y="838.0"/>
      <point x="537" y="838" type="qcurve" smooth="yes"/>
      <point x="720.0" y="838.0"/>
      <point x="873" y="653.8877551020408"/>
      <point x="873" y="543" type="qcurve"/>
      <point x="873" y="539" type="line"/>
      <point x="114" y="539" type="line"/>
      <point x="114" y="442" type="line"/>
      <point x="985" y="442" type="line"/>
      <point x="985" y="487" type="line" smooth="yes"/>
      <point x="985" y="696.341628959276"/>
      <point x="752.0" y="934.0"/>
      <point x="537" y="934" type="qcurve" smooth="yes"/>
      <point x="320" y="934"/>
      <point x="56" y="681"/>
      <point x="56" y="474" type="qcurve" smooth="yes"/>
    </contour>
    <contour>
      <point x="487" y="914" type="move" name="top"/>
    </contour>
  </outline>
</glyph>
<glyph name="g" format="1">
  <advance width="1125"/>
  <unicode hex="0067"/>
  <outline>
    <contour>
      <point x="109" y="-319" type="line"/>
      <point x="181" y="-367"/>
      <point x="396" y="-426"/>
      <point x="526" y="-426" type="qcurve" smooth="yes"/>
      <point x="748" y="-426"/>
      <point x="1007" y="-197"/>
      <point x="1007" y="34" type="qcurve" smooth="yes"/>
      <point x="1007" y="914" type="line"/>
      <point x="897" y="914" type="line"/>
      <point x="894" y="777" type="line"/>
      <point x="893" y="777" type="line"/>
      <point x="841" y="845"/>
      <point x="637" y="934"/>
      <point x="510" y="934" type="qcurve" smooth="yes"/>
      <point x="294" y="934"/>
      <point x="56" y="674"/>
      <point x="56" y="474" type="qcurve" smooth="yes"/>
      <point x="56" y="442" type="line" smooth="yes"/>
      <point x="56" y="242"/>
      <point x="294" y="-12"/>
      <point x="502" y="-12" type="qcurve" smooth="yes"/>
      <point x="638" y="-12"/>
      <point x="831" y="75"/>
      <point x="890" y="143" type="qcurve"/>
      <point x="890" y="34" type="line" smooth="yes"/>
      <point x="890" y="-159.67914438502675"/>
      <point x="688.0" y="-330.0"/>
      <point x="520" y="-330" type="qcurve" smooth="yes"/>
      <point x="405" y="-330"/>
      <point x="207" y="-272"/>
      <point x="150" y="-231" type="qcurve"/>
    </contour>
    <contour>
      <point x="174" y="442" type="qcurve" smooth="yes"/>
      <point x="174" y="474" type="line" smooth="yes"/>
      <point x="174" y="630.6648936170213"/>
      <point x="353.0" y="834.0"/>
      <point x="543" y="834" type="qcurve" smooth="yes"/>
      <point x="671" y="834"/>
      <point x="851" y="721"/>
      <point x="890" y="647" type="qcurve"/>
      <point x="890" y="276" type="line"/>
      <point x="852" y="201"/>
      <point x="671" y="88"/>
      <point x="543" y="88" type="qcurve" smooth="yes"/>
      <point x="353.0" y="88.0"/>
      <point x="174" y="284.4324324324324"/>
    </contour>
  </outline>
</glyph>
<glyph name="h" format="1">
  <advance width="1080"/>
  <unicode hex="0068"/>
  <outline>
    <contour>
      <point x="118" y="0" type="line"/>
      <point x="234" y="0" type="line"/>
      <point x="234" y="625" type="line"/>
      <point x="290" y="717"/>
      <point x="457" y="836"/>
      <point x="571" y="836" type="qcurve" smooth="yes"/>
      <point x="707.0" y="836.0"/>
      <point x="854" y="699.6640316205534"/>
      <point x="854" y="543" type="qcurve" smooth="yes"/>
      <point x="854" y="0" type="line"/>
      <point x="972" y="0" type="line"/>
      <point x="972" y="551" type="line" smooth="yes"/>
      <point x="972" y="758"/>
      <point x="781" y="934"/>
      <point x="617" y="934" type="qcurve" smooth="yes"/>
      <point x="493" y="934"/>
      <point x="304" y="853"/>
      <point x="234" y="757" type="qcurve"/>
      <point x="234" y="1458" type="line"/>
      <point x="118" y="1458" type="line"/>
    </contour>
  </outline>
</glyph>
<glyph name="i" format="1">
  <advance width="364"/>
  <unicode hex="0069"/>
  <outline>
    <contour>
      <point x="124" y="0" type="line"/>
      <point x="240" y="0" type="line"/>
      <point x="240" y="914" type="line"/>
      <point x="124" y="914" type="line"/>
    </contour>
    <contour>
      <point x="101" y="1259" type="qcurve" smooth="yes"/>
      <point x="101" y="1225"/>
      <point x="143" y="1179"/>
      <point x="182" y="1179" type="qcurve" smooth="yes"/>
      <point x="220" y="1179"/>
      <point x="262" y="1225"/>
      <point x="262" y="1259" type="qcurve" smooth="yes"/>
      <point x="262" y="1293"/>
      <point x="221" y="1338"/>
      <point x="182" y="1338" type="qcurve" smooth="yes"/>
      <point x="143" y="1338"/>
      <point x="101" y="1292"/>
    </contour>
  </outline>
</glyph>
<glyph name="k" format="1">
  <advance width="962"/>
  <unicode hex="006B"/>
  <outline>
    <contour>
      <point x="118" y="0" type="line"/>
      <point x="234" y="0" type="line"/>
      <point x="234" y="346" type="line"/>
      <point x="923" y="914" type="line"/>
      <point x="760" y="914" type="line"/>
      <point x="234" y="483" type="line"/>
      <point x="234" y="1458" type="line"/>
      <point x="118" y="1458" type="line"/>
    </contour>
    <contour>
      <point x="835" y="0" type="line"/>
      <point x="975" y="0" type="line"/>
      <point x="475" y="587" type="line"/>
      <point x="392" y="522" type="line"/>
    </contour>
  </outline>
</glyph>
<glyph name="m" format="1">
  <advance width="1776"/>
  <unicode hex="006D"/>
  <outline>
    <contour>
      <point x="118" y="0" type="line"/>
      <point x="234" y="0" type="line"/>
      <point x="234" y="625" type="line"/>
      <point x="290" y="715"/>
      <point x="451" y="836"/>
      <point x="561" y="836" type="qcurve" smooth="yes"/>
      <point x="691.0" y="836.0"/>
      <point x="833" y="709.4483070477589"/>
      <point x="834" y="553" type="qcurve" smooth="yes"/>
      <point x="834" y="0" type="line"/>
      <point x="952" y="0" type="line"/>
      <point x="952" y="625" type="line"/>
      <point x="1007" y="716"/>
      <point x="1167" y="836"/>
      <point x="1279" y="836" type="qcurve" smooth="yes"/>
      <point x="1410.0" y="836.0"/>
      <point x="1550" y="710.4071263837275"/>
      <point x="1552" y="553" type="qcurve" smooth="yes"/>
      <point x="1552" y="0" type="line"/>
      <point x="1668" y="0" type="line"/>
      <point x="1668" y="551" type="line" smooth="yes"/>
      <point x="1668" y="758"/>
      <point x="1475" y="934"/>
      <point x="1320" y="934" type="qcurve" smooth="yes"/>
      <point x="1191" y="934"/>
      <point x="982" y="841"/>
      <point x="917" y="749" type="qcurve"/>
      <point x="919" y="749" type="line"/>
      <point x="887" y="841"/>
      <point x="723" y="934"/>
      <point x="607" y="934" type="qcurve" smooth="yes"/>
      <point x="486" y="934"/>
      <point x="302" y="841"/>
      <point x="229" y="747" type="qcurve"/>
      <point x="231" y="747" type="line"/>
      <point x="230" y="914" type="line"/>
      <point x="118" y="914" type="line"/>
    </contour>
  </outline>
</glyph>
<glyph name="n" format="1">
  <advance width="1080"/>
  <unicode hex="006E"/>
  <outline>
    <contour>
      <point x="118" y="0" type="line"/>
      <point x="234" y="0" type="line"/>
      <point x="234" y="625" type="line"/>
      <point x="290" y="717"/>
      <point x="458" y="836"/>
      <point x="571" y="836" type="qcurve" smooth="yes"/>
      <point x="707.0" y="836.0"/>
      <point x="855" y="698.6640316205534"/>
      <point x="855" y="543" type="qcurve" smooth="yes"/>
      <point x="855" y="0" type="line"/>
      <point x="972" y="0" type="line"/>
      <point x="972" y="551" type="line" smooth="yes"/>
      <point x="972" y="758"/>
      <point x="781" y="934"/>
      <point x="617" y="934" type="qcurve" smooth="yes"/>
      <point x="493" y="934"/>
      <point x="296" y="848"/>
      <point x="229" y="750" type="qcurve"/>
      <point x="231" y="750" type="line"/>
      <point x="230" y="914" type="line"/>
      <point x="118" y="914" type="line"/>
    </contour>
    <contour>
      <point x="597.0" y="1052.0" type="move" name="top"/>
    </contour>
  </outline>
</glyph>
<glyph name="o" format="1">
  <advance width="1126"/>
  <unicode hex="006F"/>
  <outline>
    <contour>
      <point x="56" y="442" type="line" smooth="yes"/>
      <point x="56" y="233"/>
      <point x="332" y="-20"/>
      <point x="563" y="-20" type="qcurve" smooth="yes"/>
      <point x="794" y="-20"/>
      <point x="1070" y="233"/>
      <point x="1070" y="442" type="qcurve" smooth="yes"/>
      <point x="1070" y="474" type="line" smooth="yes"/>
      <point x="1070" y="681"/>
      <point x="794" y="934"/>
      <point x="563" y="934" type="qcurve" smooth="yes"/>
      <point x="333" y="934"/>
      <point x="56" y="681"/>
      <point x="56" y="474" type="qcurve" smooth="yes"/>
    </contour>
    <contour>
      <point x="174" y="473" type="line" smooth="yes"/>
      <point x="174" y="633.5437665782493"/>
      <point x="373.0" y="834.0"/>
      <point x="562" y="834" type="qcurve" smooth="yes"/>
      <point x="753.0" y="834.0"/>
      <point x="951" y="633.5437665782493"/>
      <point x="951" y="473" type="qcurve" smooth="yes"/>
      <point x="951" y="443" type="line" smooth="yes"/>
      <point x="951" y="282.4327176781003"/>
      <point x="753.0" y="80.0"/>
      <point x="562" y="80" type="qcurve" smooth="yes"/>
      <point x="373.0" y="80.0"/>
      <point x="174" y="282.4179894179894"/>
      <point x="174" y="442" type="qcurve" smooth="yes"/>
    </contour>
    <contour>
      <point x="581" y="1052" type="move" name="top"/>
    </contour>
  </outline>
</glyph>
<glyph name="p" format="1">
  <advance width="1125"/>
  <unicode hex="0070"/>
  <outline>
    <contour>
      <point x="118" y="-416" type="line"/>
      <point x="234" y="-416" type="line"/>
      <point x="234" y="135" type="line"/>
      <point x="296" y="66"/>
      <point x="488" y="-20"/>
      <point x="620" y="-20" type="qcurve" smooth="yes"/>
      <point x="831" y="-20"/>
      <point x="1068" y="233"/>
      <point x="1068" y="447" type="qcurve" smooth="yes"/>
      <point x="1068" y="479" type="line" smooth="yes"/>
      <point x="1068" y="689"/>
      <point x="831" y="934"/>
      <point x="620" y="934" type="qcurve" smooth="yes"/>
      <point x="489" y="934"/>
      <point x="280" y="837"/>
      <point x="229" y="767" type="qcurve"/>
      <point x="231" y="767" type="line"/>
      <point x="230" y="914" type="line"/>
      <point x="118" y="914" type="line"/>
    </contour>
    <contour>
      <point x="234" y="268" type="qcurve"/>
      <point x="234" y="647" type="line"/>
      <point x="275" y="721"/>
      <point x="454" y="834"/>
      <point x="581" y="834" type="qcurve" smooth="yes"/>
      <point x="771.0" y="834.0"/>
      <point x="948" y="636.5795148247978"/>
      <point x="948" y="479" type="qcurve" smooth="yes"/>
      <point x="948" y="448" type="line" smooth="yes"/>
      <point x="948" y="289.296875"/>
      <point x="771.0" y="80.0"/>
      <point x="581" y="80" type="qcurve" smooth="yes"/>
      <point x="453" y="80"/>
      <point x="274" y="193"/>
    </contour>
  </outline>
</glyph>
<glyph name="r" format="1">
  <advance width="646"/>
  <unicode hex="0072"/>
  <outline>
    <contour>
      <point x="118" y="0" type="line"/>
      <point x="234" y="0" type="line"/>
      <point x="234" y="635" type="line"/>
      <point x="283" y="720"/>
      <point x="451" y="831"/>
      <point x="551" y="831" type="qcurve" smooth="yes"/>
      <point x="583" y="831"/>
      <point x="636" y="825"/>
      <point x="657" y="821" type="qcurve"/>
      <point x="657" y="924" type="line"/>
      <point x="645" y="928"/>
      <point x="588" y="934"/>
      <point x="567" y="934" type="qcurve" smooth="yes"/>
      <point x="449" y="934"/>
      <point x="283" y="837"/>
      <point x="229" y="766" type="qcurve"/>
      <point x="231" y="766" type="line"/>
      <point x="230" y="914" type="line"/>
      <point x="118" y="914" type="line"/>
    </contour>
  </outline>
</glyph>
<glyph name="s" format="1">
  <advance width="1012"/>
  <unicode hex="0073"/>
  <outline>
    <contour>
      <point x="90" y="286" type="line"/>
      <point x="90" y="262" type="line" smooth="yes"/>
      <point x="90" y="127"/>
      <point x="303" y="-20"/>
      <point x="511" y="-20" type="qcurve" smooth="yes"/>
      <point x="722" y="-20"/>
      <point x="932" y="129"/>
      <point x="932" y="252" type="qcurve" smooth="yes"/>
      <point x="932.0" y="362.820895522388"/>
      <point x="746.8409744136227" y="481.04482600421375"/>
      <point x="554" y="523" type="qcurve" smooth="yes"/>
      <point x="373.7883839802388" y="559.0575720053762"/>
      <point x="241.0" y="630.7891891891893"/>
      <point x="241" y="702" type="qcurve" smooth="yes"/>
      <point x="241.0" y="773.8344370860927"/>
      <point x="377.0" y="840.0"/>
      <point x="512" y="840" type="qcurve" smooth="yes"/>
      <point x="648.0" y="840.0"/>
      <point x="794" y="758.6524064171123"/>
      <point x="794" y="665" type="qcurve" smooth="yes"/>
      <point x="794" y="646" type="line"/>
      <point x="909" y="646" type="line"/>
      <point x="909" y="666" type="line" smooth="yes"/>
      <point x="909" y="797"/>
      <point x="691" y="934"/>
      <point x="512" y="934" type="qcurve" smooth="yes"/>
      <point x="333" y="934"/>
      <point x="123" y="803"/>
      <point x="123" y="691" type="qcurve" smooth="yes"/>
      <point x="123.0" y="581.9143968871595"/>
      <point x="294.8501703517685" y="462.04029900883467"/>
      <point x="484" y="423" type="qcurve" smooth="yes"/>
      <point x="677.7837515810111" y="382.0591079011903"/>
      <point x="814.0" y="315.8883248730964"/>
      <point x="814" y="240" type="qcurve" smooth="yes"/>
      <point x="814.0" y="157.9438202247191"/>
      <point x="654.0" y="75.0"/>
      <point x="510" y="75" type="qcurve" smooth="yes"/>
      <point x="369.0" y="75.0"/>
      <point x="204" y="165.2"/>
      <point x="204" y="262" type="qcurve" smooth="yes"/>
      <point x="204" y="286" type="line"/>
    </contour>
  </outline>
</glyph>
<glyph name="u" format="1">
  <advance width="1080"/>
  <unicode hex="0075"/>
  <outline>
    <contour>
      <point x="108" y="364" type="line" smooth="yes"/>
      <point x="108" y="156"/>
      <point x="298" y="-20"/>
      <point x="463" y="-20" type="qcurve" smooth="yes"/>
      <point x="586" y="-20"/>
      <point x="779" y="71"/>
      <point x="849" y="168" type="qcurve"/>
      <point x="851" y="168" type="line"/>
      <point x="855" y="0" type="line"/>
      <point x="962" y="0" type="line"/>
      <point x="962" y="914" type="line"/>
      <point x="844" y="914" type="line"/>
      <point x="844" y="289" type="line"/>
      <point x="789" y="197"/>
      <point x="621" y="79"/>
      <point x="507" y="79" type="qcurve" smooth="yes"/>
      <point x="372.0" y="79.0"/>
      <point x="224" y="204.59670781893004"/>
      <point x="224" y="362" type="qcurve" smooth="yes"/>
      <point x="224" y="914" type="line"/>
      <point x="108" y="914" type="line"/>
    </contour>
  </outline>
</glyph>
<glyph name="v" format="1">
  <advance width="998"/>
  <unicode hex="0076"/>
  <outline>
    <contour>
      <point x="0" y="914" type="line"/>
      <point x="431" y="0" type="line"/>
      <point x="567" y="0" type="line"/>
      <point x="998" y="914" type="line"/>
      <point x="866" y="914" type="line"/>
      <point x="569" y="236" type="line" smooth="yes"/>
      <point x="548" y="189"/>
      <point x="526" y="139"/>
      <point x="505" y="92" type="qcurve"/>
      <point x="501" y="92" type="line"/>
      <point x="479" y="139"/>
      <point x="457" y="188"/>
      <point x="436" y="236" type="qcurve" smooth="yes"/>
      <point x="135" y="914" type="line"/>
    </contour>
  </outline>
</glyph>
<glyph name="w" format="1">
  <advance width="1584"/>
  <unicode hex="0077"/>
  <outline>
    <contour>
      <point x="10" y="914" type="line"/>
      <point x="321" y="0" type="line"/>
      <point x="491" y="0" type="line"/>
      <point x="753" y="696" type="line" smooth="yes"/>
      <point x="764" y="723"/>
      <point x="782" y="770"/>
      <point x="792" y="798" type="qcurve"/>
      <point x="797" y="798" type="line"/>
      <point x="806" y="770"/>
      <point x="824" y="722"/>
      <point x="835" y="696" type="qcurve" smooth="yes"/>
      <point x="1098" y="0" type="line"/>
      <point x="1265" y="0" type="line"/>
      <point x="1574" y="914" type="line"/>
      <point x="1454" y="914" type="line"/>
      <point x="1239" y="246" type="line" smooth="yes"/>
      <point x="1228" y="214"/>
      <point x="1206" y="156"/>
      <point x="1189" y="116" type="qcurve"/>
      <point x="1183" y="116" type="line"/>
      <point x="1167" y="156"/>
      <point x="1143" y="208"/>
      <point x="1128" y="246" type="qcurve" smooth="yes"/>
      <point x="874" y="914" type="line"/>
      <point x="726" y="914" type="line"/>
      <point x="470" y="246" type="line" smooth="yes"/>
      <point x="456" y="208"/>
      <point x="435" y="156"/>
      <point x="420" y="116" type="qcurve"/>
      <point x="414" y="116" type="line"/>
      <point x="401" y="156"/>
      <point x="386" y="208"/>
      <point x="373" y="246" type="qcurve" smooth="yes"/>
      <point x="143" y="914" type="line"/>
    </contour>
  </outline>
</glyph>
<glyph name="x" format="1">
  <advance width="900"/>
  <unicode hex="0078"/>
  <outline>
    <contour>
      <point x="0" y="0" type="line"/>
      <point x="136" y="0" type="line"/>
      <point x="464" y="430" type="line"/>
      <point x="497" y="440" type="line"/>
      <point x="877" y="914" type="line"/>
      <point x="741" y="914" type="line"/>
      <point x="423" y="512" type="line"/>
      <point x="388" y="498" type="line"/>
    </contour>
    <contour>
      <point x="24" y="914" type="line"/>
      <point x="403" y="438" type="line"/>
      <point x="437" y="421" type="line"/>
      <point x="751" y="0" type="line"/>
      <point x="900" y="0" type="line"/>
      <point x="515" y="498" type="line"/>
      <point x="479" y="518" type="line"/>
      <point x="172" y="914" type="line"/>
    </contour>
  </outline>
</glyph>
<glyph name="y" format="1">
  <advance width="995"/>
  <unicode hex="0079"/>
  <outline>
    <contour>
      <point x="38" y="-416" type="line"/>
      <point x="69" y="-425"/>
      <point x="134" y="-436"/>
      <point x="178" y="-436" type="qcurve" smooth="yes"/>
      <point x="296" y="-436"/>
      <point x="427" y="-290"/>
      <point x="497" y="-140" type="qcurve" smooth="yes"/>
      <point x="1004" y="914" type="line"/>
      <point x="877" y="914" type="line"/>
      <point x="571" y="225" type="line" smooth="yes"/>
      <point x="555" y="187"/>
      <point x="528" y="141"/>
      <point x="506" y="98" type="qcurve"/>
      <point x="506" y="98" type="line"/>
      <point x="484" y="140"/>
      <point x="454" y="186"/>
      <point x="438" y="223" type="qcurve" smooth="yes"/>
      <point x="143" y="914" type="line"/>
      <point x="0" y="914" type="line"/>
      <point x="431" y="1" type="line"/>
      <point x="410" y="-84" type="line" smooth="yes"/>
      <point x="344" y="-232"/>
      <point x="242" y="-340"/>
      <point x="166" y="-340" type="qcurve" smooth="yes"/>
      <point x="134" y="-340"/>
      <point x="70" y="-329"/>
      <point x="38" y="-319" type="qcurve"/>
    </contour>
    <contour>
      <point x="480" y="1052" type="move" name="top"/>
    </contour>
  </outline>
</glyph>
<glyph name="z" format="1">
  <advance width="849"/>
  <unicode hex="007A"/>
  <outline>
    <contour>
      <point x="10" y="0" type="line"/>
      <point x="839" y="0" type="line"/>
      <point x="839" y="100" type="line"/>
      <point x="154" y="100" type="line"/>
      <point x="815" y="824" type="line"/>
      <point x="815" y="914" type="line"/>
      <point x="21" y="914" type="line"/>
      <point x="21" y="814" type="line"/>
      <point x="672" y="814" type="line"/>
      <point x="10" y="90" type="line"/>
    </contour>
  </outline>
</glyph>
<glyph name="braceleft" format="1">
  <advance width="626"/>
  <unicode hex="007B"/>
  <outline>
    <contour>
      <point x="628" y="-312" type="qcurve"/>
      <point x="628" y="-228" type="line"/>
      <point x="438.0" y="-228.0"/>
      <point x="291.1831455393377" y="-38.06751373745524"/>
      <point x="338" y="144" type="qcurve" smooth="yes"/>
      <point x="388" y="334" type="line" smooth="yes"/>
      <point x="409" y="418"/>
      <point x="337" y="551"/>
      <point x="240" y="574" type="qcurve"/>
      <point x="337" y="597"/>
      <point x="411" y="731"/>
      <point x="388" y="814" type="qcurve" smooth="yes"/>
      <point x="338" y="1004" type="line" smooth="yes"/>
      <point x="291.1831455393378" y="1186.067513737455"/>
      <point x="438.0" y="1376.0"/>
      <point x="628" y="1376" type="qcurve"/>
      <point x="628" y="1460" type="line"/>
      <point x="396" y="1460"/>
      <point x="161" y="1222"/>
      <point x="220" y="1011" type="qcurve" smooth="yes"/>
      <point x="269" y="821" type="line" smooth="yes"/>
      <point x="299.71575305038584" y="695.9842628365574"/>
      <point x="163.0" y="616.0"/>
      <point x="46" y="616" type="qcurve"/>
      <point x="46" y="532" type="line"/>
      <point x="163.0" y="532.0"/>
      <point x="299.71575305038584" y="452.01573716344257"/>
      <point x="269" y="327" type="qcurve" smooth="yes"/>
      <point x="220" y="137" type="line" smooth="yes"/>
      <point x="161" y="-74"/>
      <point x="396" y="-312"/>
    </contour>
  </outline>
</glyph>
<glyph name="sterling" format="1">
  <advance width="1124"/>
  <unicode hex="00A3"/>
  <outline>
    <contour>
      <point x="118" y="0" type="line"/>
      <point x="1048" y="0" type="line"/>
      <point x="1048" y="99" type="line"/>
      <point x="342" y="99" type="line"/>
      <point x="386.793305799578" y="138.79330579957795"/>
      <point x="446.0" y="317.6595744680851"/>
      <point x="446" y="454" type="qcurve" smooth="yes"/>
      <point x="446" y="588"/>
      <point x="355" y="925"/>
      <point x="355" y="1050" type="qcurve" smooth="yes"/>
      <point x="355.0" y="1211.1432664756446"/>
      <point x="495.0" y="1377.0"/>
      <point x="629" y="1377" type="qcurve" smooth="yes"/>
      <point x="764.0" y="1377.0"/>
      <point x="912" y="1212.2923976608188"/>
      <point x="912" y="1058" type="qcurve" smooth="yes"/>
      <point x="912" y="1038" type="line"/>
      <point x="1031" y="1038" type="line"/>
      <point x="1031" y="1058" type="line" smooth="yes"/>
      <point x="1031" y="1246"/>
      <point x="820" y="1476"/>
      <point x="631" y="1476" type="qcurve" smooth="yes"/>
      <point x="442" y="1476"/>
      <point x="237" y="1245"/>
      <point x="237" y="1051" type="qcurve" smooth="yes"/>
      <point x="237" y="913"/>
      <point x="331" y="568"/>
      <point x="331" y="433" type="qcurve" smooth="yes"/>
      <point x="331.0" y="303.6750700280112"/>
      <point x="213.92195003227954" y="107.9896560283744"/>
      <point x="118" y="97" type="qcurve"/>
    </contour>
    <contour>
      <point x="96" y="662" type="line"/>
      <point x="935" y="662" type="line"/>
      <point x="935" y="762" type="line"/>
      <point x="96" y="762" type="line"/>
    </contour>
  </outline>
</glyph>
<glyph name="yen" format="1">
  <advance width="1114"/>
  <unicode hex="00A5"/>
  <outline>
    <contour>
      <point x="55" y="286" type="line"/>
      <point x="1057" y="286" type="line"/>
      <point x="1057" y="371" type="line"/>
      <point x="55" y="371" type="line"/>
    </contour>
    <contour>
      <point x="55" y="577" type="line"/>
      <point x="1057" y="577" type="line"/>
      <point x="1057" y="665" type="line"/>
      <point x="55" y="665" type="line"/>
    </contour>
    <contour>
      <point x="497" y="0" type="line"/>
      <point x="615" y="0" type="line"/>
      <point x="615" y="628" type="line"/>
      <point x="1138" y="1456" type="line"/>
      <point x="1023" y="1456" type="line"/>
      <point x="624" y="838" type="line" smooth="yes"/>
      <point x="604" y="808"/>
      <point x="576" y="748"/>
      <point x="565" y="718" type="qcurve"/>
      <point x="558" y="718" type="line"/>
      <point x="546" y="748"/>
      <point x="519" y="808"/>
      <point x="500" y="838" type="qcurve" smooth="yes"/>
      <point x="109" y="1456" type="line"/>
      <point x="-25" y="1456" type="line"/>
      <point x="497" y="627" type="line"/>
    </contour>
  </outline>
</glyph>
<glyph name="degree" format="1">
  <advance width="767"/>
  <unicode hex="00B0"/>
  <outline>
    <contour>
      <point x="120" y="1147" type="qcurve" smooth="yes"/>
      <point x="120" y="1004"/>
      <point x="275" y="815"/>
      <point x="384" y="815" type="qcurve" smooth="yes"/>
      <point x="494" y="815"/>
      <point x="647" y="1004"/>
      <point x="647" y="1146" type="qcurve" smooth="yes"/>
      <point x="647" y="1288"/>
      <point x="493" y="1476"/>
      <point x="384" y="1476" type="qcurve" smooth="yes"/>
      <point x="274" y="1476"/>
      <point x="120" y="1289"/>
    </contour>
    <contour>
      <point x="214" y="1146" type="qcurve" smooth="yes"/>
      <point x="214.0" y="1254.6538461538462"/>
      <point x="310.0" y="1395.0"/>
      <point x="384" y="1395" type="qcurve" smooth="yes"/>
      <point x="458.0" y="1395.0"/>
      <point x="554.0" y="1254.6538461538462"/>
      <point x="554" y="1146" type="qcurve" smooth="yes"/>
      <point x="554.0" y="1038.3295019157088"/>
      <point x="458.0" y="896.0"/>
      <point x="384" y="896" type="qcurve" smooth="yes"/>
      <point x="310.0" y="896.0"/>
      <point x="214.0" y="1038.3295019157088"/>
    </contour>
  </outline>
</glyph>
<glyph name="acute" format="1">
  <advance width="1073"/>
  <unicode hex="00B4"/>
  <outline>
    <contour>
      <point x="441" y="1156" type="line"/>
      <point x="562" y="1156" type="line"/>
      <point x="830" y="1456" type="line"/>
      <point x="687" y="1456" type="line"/>
    </contour>
    <contour>
      <point x="512" y="1052" type="move" name="_top"/>
    </contour>
  </outline>
</glyph>
<glyph name="periodcentered" format="1">
  <advance width="499"/>
  <unicode hex="00B7"/>
  <outline>
    <contour>
      <point x="160" y="730" type="qcurve" smooth="yes"/>
      <point x="160" y="691"/>
      <point x="206" y="638"/>
      <point x="249" y="638" type="qcurve" smooth="yes"/>
      <point x="292" y="638"/>
      <point x="339" y="692"/>
      <point x="339" y="730" type="qcurve" smooth="yes"/>
      <point x="339" y="769"/>
      <point x="293" y="822"/>
      <point x="250" y="822" type="qcurve" smooth="yes"/>
      <point x="206" y="822"/>
      <point x="160" y="768"/>
    </contour>
  </outline>
</glyph>
<glyph name="cedilla" format="1">
  <advance width="1024"/>
  <unicode hex="00B8"/>
  <outline>
    <contour>
      <point x="463" y="0" type="line"/>
      <point x="403" y="-215" type="line"/>
      <point x="514" y="-215"/>
      <point x="608" y="-280"/>
      <point x="608" y="-336" type="qcurve" smooth="yes"/>
      <point x="608" y="-402"/>
      <point x="465" y="-480"/>
      <point x="304" y="-480" type="qcurve"/>
      <point x="308" y="-544" type="line"/>
      <point x="542" y="-544"/>
      <point x="720" y="-424"/>
      <point x="720" y="-336" type="qcurve" smooth="yes"/>
      <point x="720" y="-260"/>
      <point x="615" y="-174"/>
      <point x="524" y="-165" type="qcurve"/>
      <point x="571" y="0" type="line"/>
    </contour>
    <contour>
      <point x="512" y="0" type="move" name="_bottom"/>
    </contour>
  </outline>
</glyph>
<glyph name="questiondown" format="1">
  <advance width="844"/>
  <unicode hex="00BF"/>
  <outline>
    <contour>
      <point x="56" y="39" type="qcurve" smooth="yes"/>
      <point x="56" y="-102"/>
      <point x="255" y="-300"/>
      <point x="434" y="-300" type="qcurve" smooth="yes"/>
      <point x="611" y="-300"/>
      <point x="816" y="-95"/>
      <point x="816" y="71" type="qcurve" smooth="yes"/>
      <point x="816" y="93" type="line"/>
      <point x="694" y="93" type="line"/>
      <point x="694" y="71" type="line" smooth="yes"/>
      <point x="694" y="-55.4406779661017"/>
      <point x="559.9856459330144" y="-203.0"/>
      <point x="432" y="-203" type="qcurve" smooth="yes"/>
      <point x="305.0049261083743" y="-203.0"/>
      <point x="180.0" y="-63.13636363636364"/>
      <point x="180" y="39" type="qcurve" smooth="yes"/>
      <point x="180.0" y="150.375"/>
      <point x="260.61463619481475" y="290.84234129921174"/>
      <point x="351" y="379" type="qcurve" smooth="yes"/>
      <point x="440.5684210354992" y="461.7669553437903"/>
      <point x="537" y="633.6270718232045"/>
      <point x="537" y="749" type="qcurve" smooth="yes"/>
      <point x="537" y="759" type="line"/>
      <point x="414" y="759" type="line"/>
      <point x="414" y="749" type="line" smooth="yes"/>
      <point x="414" y="672.186119873817"/>
      <point x="344.96262034319784" y="539.8251362922964"/>
      <point x="244" y="441" type="qcurve" smooth="yes"/>
      <point x="150.1266891136483" y="343.9775872550029"/>
      <point x="56.0" y="179.17380352644835"/>
    </contour>
    <contour>
      <point x="386" y="1107" type="qcurve" smooth="yes"/>
      <point x="386" y="1070"/>
      <point x="432" y="1016"/>
      <point x="474" y="1016" type="qcurve" smooth="yes"/>
      <point x="516" y="1016"/>
      <point x="560" y="1070"/>
      <point x="560" y="1107" type="qcurve" smooth="yes"/>
      <point x="560" y="1144"/>
      <point x="516" y="1198"/>
      <point x="474" y="1198" type="qcurve" smooth="yes"/>
      <point x="431" y="1198"/>
      <point x="386" y="1144"/>
    </contour>
  </outline>
</glyph>
<glyph name="Thorn" format="1">
  <advance width="1094"/>
  <unicode hex="00DE"/>
  <outline>
    <contour>
      <point x="130" y="0" type="line"/>
      <point x="250" y="0" type="line"/>
      <point x="250" y="307" type="line"/>
      <point x="585" y="307" type="line" smooth="yes"/>
      <point x="815" y="307"/>
      <point x="1050" y="548"/>
      <point x="1050" y="736" type="qcurve" smooth="yes"/>
      <point x="1050" y="924"/>
      <point x="825" y="1164"/>
      <point x="595" y="1164" type="qcurve" smooth="yes"/>
      <point x="250" y="1164" type="line"/>
      <point x="250" y="1456" type="line"/>
      <point x="130" y="1456" type="line"/>
    </contour>
    <contour>
      <point x="250" y="408" type="line"/>
      <point x="250" y="1064" type="line"/>
      <point x="576" y="1064" type="line" smooth="yes"/>
      <point x="761.0" y="1064"/>
      <point x="930.0" y="877.7793696275072"/>
      <point x="930" y="736" type="qcurve" smooth="yes"/>
      <point x="930.0" y="593.2514285714285"/>
      <point x="769.0" y="408"/>
      <point x="584" y="408" type="qcurve" smooth="yes"/>
    </contour>
  </outline>
</glyph>
<glyph name="oslash" format="1">
  <advance width="1045"/>
  <unicode hex="00F8"/>
  <outline>
    <contour>
      <point x="56" y="442" type="line" smooth="yes"/>
      <point x="56" y="233"/>
      <point x="310" y="-20"/>
      <point x="523" y="-20" type="qcurve" smooth="yes"/>
      <point x="737" y="-20"/>
      <point x="989" y="233"/>
      <point x="989" y="442" type="qcurve" smooth="yes"/>
      <point x="989" y="474" type="line" smooth="yes"/>
      <point x="989" y="681"/>
      <point x="737" y="934"/>
      <point x="524" y="934" type="qcurve" smooth="yes"/>
      <point x="311" y="934"/>
      <point x="56" y="681"/>
      <point x="56" y="474" type="qcurve" smooth="yes"/>
    </contour>
    <contour>
      <point x="205" y="473" type="line" smooth="yes"/>
      <point x="205" y="632.6525198938992"/>
      <point x="367.0" y="832.0"/>
      <point x="523" y="832" type="qcurve" smooth="yes"/>
      <point x="679.0" y="832.0"/>
      <point x="840" y="632.6525198938992"/>
      <point x="840" y="473" type="qcurve" smooth="yes"/>
      <point x="840" y="443" type="line" smooth="yes"/>
      <point x="840" y="283.3192612137203"/>
      <point x="679.0" y="82.0"/>
      <point x="523" y="82" type="qcurve" smooth="yes"/>
      <point x="367.0" y="82.0"/>
      <point x="205" y="283.3015873015873"/>
      <point x="205" y="442" type="qcurve" smooth="yes"/>
    </contour>
    <contour>
      <point x="89" y="-120" type="line"/>
      <point x="192" y="-120" type="line"/>
      <point x="313" y="60" type="line"/>
      <point x="312" y="60" type="line"/>
      <point x="581" y="458" type="line"/>
      <point x="486" y="458" type="line"/>
      <point x="258" y="121" type="line"/>
      <point x="255" y="121" type="line"/>
    </contour>
    <contour>
      <point x="486" y="458" type="line"/>
      <point x="581" y="458" type="line"/>
      <point x="811" y="793" type="line"/>
      <point x="812" y="793" type="line"/>
      <point x="977" y="1034" type="line"/>
      <point x="874" y="1034" type="line"/>
      <point x="743" y="831" type="line"/>
      <point x="745" y="831" type="line"/>
    </contour>
  </outline>
</glyph>
<glyph name="thorn" format="1">
  <advance width="1049"/>
  <unicode hex="00FE"/>
  <outline>
    <contour>
      <point x="118" y="-416" type="line"/>
      <point x="234" y="-416" type="line"/>
      <point x="234" y="118" type="line"/>
      <point x="278" y="62"/>
      <point x="465" y="-20"/>
      <point x="578" y="-20" type="qcurve" smooth="yes"/>
      <point x="774" y="-20"/>
      <point x="993" y="236"/>
      <point x="993" y="447" type="qcurve" smooth="yes"/>
      <point x="993" y="479" type="line" smooth="yes"/>
      <point x="993" y="686"/>
      <point x="774" y="934"/>
      <point x="578" y="934" type="qcurve" smooth="yes"/>
      <point x="465" y="934"/>
      <point x="277" y="848"/>
      <point x="234" y="782" type="qcurve"/>
      <point x="234" y="1457" type="line"/>
      <point x="118" y="1457" type="line"/>
    </contour>
    <contour>
      <point x="234" y="250" type="qcurve"/>
      <point x="234" y="664" type="line"/>
      <point x="267" y="732"/>
      <point x="430" y="834"/>
      <point x="544" y="834" type="qcurve" smooth="yes"/>
      <point x="714.0" y="834.0"/>
      <point x="873" y="636.5795148247978"/>
      <point x="873" y="479" type="qcurve" smooth="yes"/>
      <point x="873" y="448" type="line" smooth="yes"/>
      <point x="873" y="289.296875"/>
      <point x="714.0" y="80.0"/>
      <point x="544" y="80" type="qcurve" smooth="yes"/>
      <point x="430" y="80"/>
      <point x="267" y="182"/>
    </contour>
  </outline>
</glyph>
<glyph name="dotlessi" format="1">
  <advance width="364"/>
  <unicode hex="0131"/>
  <outline>
    <contour>
      <point x="124" y="0" type="line"/>
      <point x="240" y="0" type="line"/>
      <point x="240" y="914" type="line"/>
      <point x="124" y="914" type="line"/>
    </contour>
    <contour>
      <point x="132" y="914" type="move" name="top"/>
    </contour>
  </outline>
</glyph>
<glyph name="oe" format="1">
  <advance width="1714"/>
  <unicode hex="0153"/>
  <outline>
    <contour>
      <point x="56" y="444" type="line" smooth="yes"/>
      <point x="56" y="235"/>
      <point x="303" y="-20"/>
      <point x="508" y="-20" type="qcurve" smooth="yes"/>
      <point x="648" y="-20"/>
      <point x="852" y="126"/>
      <point x="901" y="254" type="qcurve"/>
      <point x="934" y="124"/>
      <point x="1152" y="-20"/>
      <point x="1291" y="-20" type="qcurve" smooth="yes"/>
      <point x="1428" y="-20"/>
      <point x="1604" y="57"/>
      <point x="1652" y="109" type="qcurve"/>
      <point x="1573" y="188" type="line"/>
      <point x="1526" y="135"/>
      <point x="1402.9178082191781" y="76.0"/>
      <point x="1300" y="76" type="qcurve" smooth="yes"/>
      <point x="1126.0" y="76.0"/>
      <point x="962" y="279.46194225721786"/>
      <point x="962" y="443" type="qcurve" smooth="yes"/>
      <point x="962" y="472" type="line" smooth="yes"/>
      <point x="962" y="635.5263157894738"/>
      <point x="1119.0" y="838.0"/>
      <point x="1269" y="838" type="qcurve" smooth="yes"/>
      <point x="1416.0" y="838.0"/>
      <point x="1547" y="664.4726688102894"/>
      <point x="1547" y="544" type="qcurve"/>
      <point x="1547" y="539" type="line"/>
      <point x="906" y="539" type="line"/>
      <point x="906" y="442" type="line"/>
      <point x="1665" y="442" type="line"/>
      <point x="1665" y="498" type="line" smooth="yes"/>
      <point x="1665" y="703.807606263982"/>
      <point x="1459.0" y="934.0"/>
      <point x="1270" y="934" type="qcurve" smooth="yes"/>
      <point x="1142" y="934"/>
      <point x="944" y="793"/>
      <point x="901" y="660" type="qcurve"/>
      <point x="853" y="789"/>
      <point x="648" y="934"/>
      <point x="508" y="934" type="qcurve" smooth="yes"/>
      <point x="303" y="934"/>
      <point x="56" y="680"/>
      <point x="56" y="472" type="qcurve" smooth="yes"/>
    </contour>
    <contour>
      <point x="174" y="443" type="qcurve" smooth="yes"/>
      <point x="174" y="472" type="line" smooth="yes"/>
      <point x="174" y="632.5555555555555"/>
      <point x="345.0" y="834.0"/>
      <point x="509" y="834" type="qcurve" smooth="yes"/>
      <point x="672.0" y="834.0"/>
      <point x="842" y="632.5555555555555"/>
      <point x="842" y="472" type="qcurve" smooth="yes"/>
      <point x="842" y="443" type="line" smooth="yes"/>
      <point x="842" y="282.4327176781003"/>
      <point x="673.0" y="80.0"/>
      <point x="509" y="80" type="qcurve" smooth="yes"/>
      <point x="344.0" y="80.0"/>
      <point x="174" y="283.4063324538258"/>
    </contour>
  </outline>
</glyph>
<glyph name="ring" format="1">
  <advance width="1101"/>
  <unicode hex="02DA"/>
  <outline>
    <contour>
      <point x="327" y="1303" type="qcurve" smooth="yes"/>
      <point x="327" y="1226"/>
      <point x="455" y="1124"/>
      <point x="551" y="1124" type="qcurve" smooth="yes"/>
      <point x="648" y="1124"/>
      <point x="774" y="1225"/>
      <point x="774" y="1302" type="qcurve" smooth="yes"/>
      <point x="774" y="1380"/>
      <point x="648" y="1481"/>
      <point x="551" y="1481" type="qcurve" smooth="yes"/>
      <point x="455" y="1481"/>
      <point x="327" y="1380"/>
    </contour>
    <contour>
      <point x="414" y="1304" type="qcurve" smooth="yes"/>
      <point x="414.0" y="1351.801724137931"/>
      <point x="490.0" y="1414.0"/>
      <point x="551" y="1414" type="qcurve" smooth="yes"/>
      <point x="612.0" y="1414.0"/>
      <point x="687.0" y="1351.801724137931"/>
      <point x="687" y="1304" type="qcurve" smooth="yes"/>
      <point x="687.0" y="1254.7435897435898"/>
      <point x="612.0" y="1191.0"/>
      <point x="551" y="1191" type="qcurve" smooth="yes"/>
      <point x="490.0" y="1191.0"/>
      <point x="414.0" y="1254.7435897435898"/>
    </contour>
    <contour>
      <point x="512" y="1052" type="move" name="_top"/>
    </contour>
  </outline>
</glyph>
<glyph name="gravecmb" format="1">
  <advance width="0"/>
  <unicode hex="0300"/>
  <outline>
    <contour>
      <point x="-26.5" y="1156" type="line"/>
      <point x="96.5" y="1156" type="line"/>
      <point x="-150.5" y="1456" type="line"/>
      <point x="-292.5" y="1456" type="line"/>
    </contour>
    <contour>
      <point x="-24.5" y="1052" type="move" name="_top"/>
    </contour>
  </outline>
</glyph>
<glyph name="acutecmb" format="1">
  <advance width="0"/>
  <unicode hex="0301"/>
  <outline>
    <contour>
      <point x="-95.5" y="1156" type="line"/>
      <point x="25.5" y="1156" type="line"/>
      <point x="293.5" y="1456" type="line"/>
      <point x="150.5" y="1456" type="line"/>
    </contour>
    <contour>
      <point x="-24.5" y="1052" type="move" name="_top"/>
    </contour>
  </outline>
</glyph>
<glyph name="circumflexcmb" format="1">
  <advance width="0"/>
  <unicode hex="0302"/>
  <outline>
    <contour>
      <point x="-348.0" y="1156" type="line"/>
      <point x="-224.0" y="1156" type="line"/>
      <point x="-1.0" y="1411" type="line"/>
      <point x="223.0" y="1156" type="line"/>
      <point x="347.0" y="1156" type="line"/>
      <point x="68.0" y="1456" type="line"/>
      <point x="-69.0" y="1456" type="line"/>
    </contour>
    <contour>
      <point x="-52.0" y="1052" type="move" name="_top"/>
    </contour>
  </outline>
</glyph>
<glyph name="tildecmb" format="1">
  <advance width="0"/>
  <unicode hex="0303"/>
  <outline>
    <contour>
      <point x="-348.5" y="1148" type="qcurve"/>
      <point x="-259.5" y="1141" type="line"/>
      <point x="-259.5" y="1225"/>
      <point x="-224.5" y="1325"/>
      <point x="-186.5" y="1325" type="qcurve" smooth="yes"/>
      <point x="-122.5" y="1325"/>
      <point x="102.5" y="1153"/>
      <point x="194.5" y="1153" type="qcurve" smooth="yes"/>
      <point x="269.5" y="1153"/>
      <point x="347.5" y="1297"/>
      <point x="347.5" y="1416" type="qcurve"/>
      <point x="259.5" y="1421" type="line"/>
      <point x="259.5" y="1337"/>
      <point x="224.5" y="1237"/>
      <point x="185.5" y="1237" type="qcurve" smooth="yes"/>
      <point x="126.5" y="1237"/>
      <point x="-99.5" y="1409"/>
      <point x="-194.5" y="1409" type="qcurve" smooth="yes"/>
      <point x="-270.5" y="1409"/>
      <point x="-348.5" y="1267"/>
    </contour>
    <contour>
      <point x="-56.5" y="1052" type="move" name="_top"/>
    </contour>
  </outline>
</glyph>
<glyph name="dieresiscmb" format="1">
  <unicode hex="0308"/>
  <outline>
    <contour>
      <point x="-279.5" y="1261" type="qcurve" smooth="yes"/>
      <point x="-279.5" y="1225"/>
      <point x="-239.5" y="1176"/>
      <point x="-202.5" y="1176" type="qcurve" smooth="yes"/>
      <point x="-165.5" y="1176"/>
      <point x="-124.5" y="1225"/>
      <point x="-124.5" y="1261" type="qcurve" smooth="yes"/>
      <point x="-124.5" y="1297"/>
      <point x="-165.5" y="1346"/>
      <point x="-202.5" y="1346" type="qcurve" smooth="yes"/>
      <point x="-239.5" y="1346"/>
      <point x="-279.5" y="1296"/>
    </contour>
    <contour>
      <point x="124.5" y="1261" type="qcurve" smooth="yes"/>
      <point x="124.5" y="1225"/>
      <point x="165.5" y="1176"/>
      <point x="201.5" y="1176" type="qcurve" smooth="yes"/>
      <point x="237.5" y="1176"/>
      <point x="280.5" y="1225"/>
      <point x="280.5" y="1261" type="qcurve" smooth="yes"/>
      <point x="280.5" y="1297"/>
      <point x="238.5" y="1346"/>
      <point x="201.5" y="1346" type="qcurve" smooth="yes"/>
      <point x="164.5" y="1346"/>
      <point x="124.5" y="1296"/>
    </contour>
  </outline>
</glyph>
<glyph name="cedillacmb" format="1">
  <advance width="0"/>
  <unicode hex="0327"/>
  <outline>
    <contour>
      <point x="-49.0" y="0" type="line"/>
      <point x="-109.0" y="-215" type="line"/>
      <point x="2.0" y="-215"/>
      <point x="96.0" y="-280"/>
      <point x="96.0" y="-336" type="qcurve" smooth="yes"/>
      <point x="96.0" y="-402"/>
      <point x="-47.0" y="-480"/>
      <point x="-208.0" y="-480" type="qcurve"/>
      <point x="-204.0" y="-544" type="line"/>
      <point x="30.0" y="-544"/>
      <point x="208.0" y="-424"/>
      <point x="208.0" y="-336" type="qcurve" smooth="yes"/>
      <point x="208.0" y="-260"/>
      <point x="103.0" y="-174"/>
      <point x="12.0" y="-165" type="qcurve"/>
      <point x="59.0" y="0" type="line"/>
    </contour>
    <contour>
      <point x="0.0" y="0" type="move" name="_bottom"/>
    </contour>
  </outline>
</glyph>
<glyph name="emdash" format="1">
  <advance width="1648"/>
  <unicode hex="2014"/>
  <outline>
    <contour>
      <point x="80" y="597" type="line"/>
      <point x="1568" y="597" type="line"/>
      <point x="1568" y="683" type="line"/>
      <point x="80" y="683" type="line"/>
    </contour>
  </outline>
</glyph>
<glyph name="quotedblright" format="1">
  <advance width="698"/>
  <unicode hex="201D"/>
  <outline>
    <contour>
      <point x="78" y="1166" type="qcurve"/>
      <point x="158" y="1123" type="line"/>
      <point x="205" y="1170"/>
      <point x="259" y="1287"/>
      <point x="259" y="1364" type="qcurve" smooth="yes"/>
      <point x="259" y="1456" type="line"/>
      <point x="140" y="1456" type="line"/>
      <point x="140" y="1364" type="line" smooth="yes"/>
      <point x="140" y="1301"/>
      <point x="110" y="1209"/>
    </contour>
    <contour>
      <point x="399" y="1166" type="qcurve"/>
      <point x="476" y="1123" type="line"/>
      <point x="525" y="1170"/>
      <point x="578" y="1287"/>
      <point x="578" y="1364" type="qcurve" smooth="yes"/>
      <point x="578" y="1456" type="line"/>
      <point x="459" y="1456" type="line"/>
      <point x="459" y="1364" type="line" smooth="yes"/>
      <point x="459" y="1301"/>
      <point x="428" y="1209"/>
    </contour>
  </outline>
</glyph>
<glyph name="guilsinglleft" format="1">
  <advance width="619"/>
  <unicode hex="2039"/>
  <outline>
    <contour>
      <point x="431" y="197" type="line"/>
      <point x="560" y="197" type="line"/>
      <point x="223" y="602" type="line"/>
      <point x="560" y="1007" type="line"/>
      <point x="431" y="1007" type="line"/>
      <point x="72" y="612" type="line"/>
      <point x="72" y="592" type="line"/>
    </contour>
  </outline>
</glyph>
<glyph name="numero" format="1">
  <advance width="2417"/>
  <unicode hex="2116"/>
  <outline>
    <contour>
      <point x="170" y="0" type="line"/>
      <point x="274" y="0" type="line"/>
      <point x="274" y="1174" type="line" smooth="yes"/>
      <point x="274" y="1204"/>
      <point x="270" y="1279"/>
      <point x="266" y="1310" type="qcurve"/>
      <point x="276" y="1310" type="line"/>
      <point x="290" y="1284"/>
      <point x="326" y="1225"/>
      <point x="348" y="1196" type="qcurve" smooth="yes"/>
      <point x="1078" y="0" type="line"/>
      <point x="1223" y="0" type="line"/>
      <point x="1223" y="1456" type="line"/>
      <point x="1119" y="1456" type="line"/>
      <point x="1119" y="280" type="line" smooth="yes"/>
      <point x="1119" y="250"/>
      <point x="1123" y="173"/>
      <point x="1127" y="145" type="qcurve"/>
      <point x="1117" y="145" type="line"/>
      <point x="1103" y="170"/>
      <point x="1066" y="230"/>
      <point x="1044" y="260" type="qcurve" smooth="yes"/>
      <point x="315" y="1456" type="line"/>
      <point x="170" y="1456" type="line"/>
    </contour>
    <contour>
      <point x="1410" y="181" type="line"/>
      <point x="1410" y="267" type="line"/>
      <point x="2284" y="267" type="line"/>
      <point x="2284" y="181" type="line"/>
    </contour>
    <contour>
      <point x="1397" y="964" type="qcurve" smooth="yes"/>
      <point x="1397" y="984" type="line" smooth="yes"/>
      <point x="1397" y="1195"/>
      <point x="1636" y="1476"/>
      <point x="1847" y="1476" type="qcurve" smooth="yes"/>
      <point x="2059" y="1476"/>
      <point x="2297" y="1195"/>
      <point x="2297" y="984" type="qcurve" smooth="yes"/>
      <point x="2297" y="964" type="line" smooth="yes"/>
      <point x="2297" y="753"/>
      <point x="2059" y="472"/>
      <point x="1847" y="472" type="qcurve" smooth="yes"/>
      <point x="1635" y="472"/>
      <point x="1397" y="753"/>
    </contour>
    <contour>
      <point x="1506" y="964" type="line" smooth="yes"/>
      <point x="1506" y="785.9428571428572"/>
      <point x="1678.0" y="557.0"/>
      <point x="1847" y="557" type="qcurve" smooth="yes"/>
      <point x="2016.0" y="557.0"/>
      <point x="2188" y="785.9428571428572"/>
      <point x="2188" y="964" type="qcurve" smooth="yes"/>
      <point x="2188" y="984" type="line" smooth="yes"/>
      <point x="2188" y="1162.057142857143"/>
      <point x="2016.0" y="1391.0"/>
      <point x="1847" y="1391" type="qcurve" smooth="yes"/>
      <point x="1678.0" y="1391.0"/>
      <point x="1506" y="1162.057142857143"/>
      <point x="1506" y="984" type="qcurve" smooth="yes"/>
    </contour>
  </outline>
</glyph>
<glyph name="f_f_i" format="1">
  <advance width="1572"/>
  <unicode hex="FB03"/>
  <outline>
    <contour>
      <point x="176" y="0" type="line"/>
      <point x="291" y="0" type="line"/>
      <point x="291" y="870" type="line"/>
      <point x="291" y="881" type="line"/>
      <point x="291" y="1137" type="line" smooth="yes"/>
      <point x="291" y="1265.8076923076924"/>
      <point x="425.0" y="1386.0"/>
      <point x="552" y="1386" type="qcurve" smooth="yes"/>
      <point x="613" y="1386"/>
      <point x="724" y="1360"/>
      <point x="771" y="1343" type="qcurve"/>
      <point x="791" y="1429" type="line"/>
      <point x="734" y="1453"/>
      <point x="606" y="1478"/>
      <point x="542" y="1478" type="qcurve" smooth="yes"/>
      <point x="372" y="1478"/>
      <point x="176" y="1304"/>
      <point x="176" y="1136" type="qcurve" smooth="yes"/>
    </contour>
    <contour>
      <point x="-10" y="814" type="line"/>
      <point x="603" y="814" type="line"/>
      <point x="603" y="914" type="line"/>
      <point x="253" y="914" type="line"/>
      <point x="231" y="914" type="line"/>
      <point x="-10" y="914" type="line"/>
    </contour>
    <contour>
      <point x="763" y="0" type="line"/>
      <point x="881" y="0" type="line"/>
      <point x="881" y="870" type="line"/>
      <point x="881" y="881" type="line"/>
      <point x="881" y="1137" type="line" smooth="yes"/>
      <point x="881" y="1265.8076923076924"/>
      <point x="1007.0" y="1386.0"/>
      <point x="1134" y="1386" type="qcurve" smooth="yes"/>
      <point x="1192" y="1386"/>
      <point x="1299" y="1361"/>
      <point x="1346" y="1345" type="qcurve"/>
      <point x="1367" y="1432" type="line"/>
      <point x="1311" y="1452"/>
      <point x="1186" y="1478"/>
      <point x="1123" y="1478" type="qcurve" smooth="yes"/>
      <point x="955" y="1478"/>
      <point x="763" y="1304"/>
      <point x="763" y="1136" type="qcurve" smooth="yes"/>
    </contour>
    <contour>
      <point x="579" y="814" type="line"/>
      <point x="1180" y="814" type="line"/>
      <point x="1180" y="914" type="line"/>
      <point x="843" y="914" type="line"/>
      <point x="821" y="914" type="line"/>
      <point x="579" y="914" type="line"/>
    </contour>
    <contour>
      <point x="1353" y="0" type="line"/>
      <point x="1469" y="0" type="line"/>
      <point x="1469" y="914" type="line"/>
      <point x="1353" y="914" type="line"/>
    </contour>
  </outline>
</glyph>
<glyph name="nine.pnum" format="1">
  <advance width="953"/>
  <outline>
    <contour>
      <point x="2" y="1001" type="qcurve" smooth="yes"/>
      <point x="2" y="800"/>
      <point x="239" y="553"/>
      <point x="434" y="553" type="qcurve" smooth="yes"/>
      <point x="630" y="553"/>
      <point x="886" y="804"/>
      <point x="886" y="1001" type="qcurve"/>
      <point x="814" y="1001" type="line"/>
      <point x="814" y="852"/>
      <point x="606" y="650"/>
      <point x="458" y="650" type="qcurve" smooth="yes"/>
      <point x="299" y="650"/>
      <point x="123" y="829"/>
      <point x="123" y="1001" type="qcurve" smooth="yes"/>
      <point x="123" y="1188"/>
      <point x="299" y="1376"/>
      <point x="458" y="1376" type="qcurve" smooth="yes"/>
      <point x="618" y="1376"/>
      <point x="817" y="1149"/>
      <point x="817" y="852" type="qcurve" smooth="yes"/>
      <point x="817" y="802" type="line" smooth="yes"/>
      <point x="817" y="453"/>
      <point x="477" y="82"/>
      <point x="192" y="82" type="qcurve" smooth="yes"/>
      <point x="170" y="82" type="line"/>
      <point x="170" y="-20" type="line"/>
      <point x="192" y="-20" type="line" smooth="yes"/>
      <point x="545" y="-20"/>
      <point x="940" y="427"/>
      <point x="940" y="812" type="qcurve" smooth="yes"/>
      <point x="940" y="842" type="line" smooth="yes"/>
      <point x="940" y="1182"/>
      <point x="660" y="1476"/>
      <point x="458" y="1476" type="qcurve" smooth="yes"/>
      <point x="258" y="1476"/>
      <point x="2" y="1217"/>
    </contour>
  </outline>
</glyph>
<glyph name="three.pnum" format="1">
  <advance width="957"/>
  <outline>
    <contour>
      <point x="35" y="377" type="line" smooth="yes"/>
      <point x="35" y="194"/>
      <point x="277" y="-20"/>
      <point x="488" y="-20" type="qcurve" smooth="yes"/>
      <point x="704" y="-20"/>
      <point x="942" y="201"/>
      <point x="942" y="389" type="qcurve" smooth="yes"/>
      <point x="942" y="555"/>
      <point x="770" y="739"/>
      <point x="646" y="763" type="qcurve"/>
      <point x="646" y="767" type="line"/>
      <point x="762" y="800"/>
      <point x="886" y="966"/>
      <point x="886" y="1113" type="qcurve" smooth="yes"/>
      <point x="886" y="1290"/>
      <point x="666" y="1476"/>
      <point x="489" y="1476" type="qcurve" smooth="yes"/>
      <point x="310" y="1476"/>
      <point x="78" y="1285"/>
      <point x="78" y="1103" type="qcurve" smooth="yes"/>
      <point x="78" y="1083" type="line"/>
      <point x="198" y="1083" type="line"/>
      <point x="198" y="1103" type="line" smooth="yes"/>
      <point x="198" y="1257"/>
      <point x="364" y="1375"/>
      <point x="488" y="1375" type="qcurve" smooth="yes"/>
      <point x="623" y="1375"/>
      <point x="765" y="1242"/>
      <point x="765" y="1108" type="qcurve" smooth="yes"/>
      <point x="765" y="942"/>
      <point x="583" y="808"/>
      <point x="436" y="808" type="qcurve" smooth="yes"/>
      <point x="298" y="808" type="line"/>
      <point x="298" y="708" type="line"/>
      <point x="446" y="708" type="line" smooth="yes"/>
      <point x="610" y="708"/>
      <point x="821" y="555"/>
      <point x="821" y="393" type="qcurve" smooth="yes"/>
      <point x="821" y="234"/>
      <point x="651" y="81"/>
      <point x="488" y="81" type="qcurve" smooth="yes"/>
      <point x="338" y="81"/>
      <point x="155" y="229"/>
      <point x="155" y="377" type="qcurve" smooth="yes"/>
      <point x="155" y="397" type="line"/>
      <point x="35" y="397" type="line"/>
    </contour>
  </outline>
</glyph>
<glyph name="two.pnum" format="1">
  <advance width="979"/>
  <outline>
    <contour>
      <point x="53" y="0" type="line"/>
      <point x="954" y="0" type="line"/>
      <point x="954" y="102" type="line"/>
      <point x="246" y="102" type="line"/>
      <point x="678" y="642" type="line" smooth="yes"/>
      <point x="803" y="797"/>
      <point x="916" y="999"/>
      <point x="916" y="1121" type="qcurve" smooth="yes"/>
      <point x="916" y="1283"/>
      <point x="688" y="1476"/>
      <point x="497" y="1476" type="qcurve" smooth="yes"/>
      <point x="288" y="1476"/>
      <point x="53" y="1265"/>
      <point x="53" y="1073" type="qcurve" smooth="yes"/>
      <point x="53" y="1053" type="line"/>
      <point x="174" y="1053" type="line"/>
      <point x="174" y="1073" type="line" smooth="yes"/>
      <point x="174" y="1234"/>
      <point x="345" y="1374"/>
      <point x="494" y="1374" type="qcurve" smooth="yes"/>
      <point x="631" y="1374"/>
      <point x="795" y="1246"/>
      <point x="795" y="1111" type="qcurve" smooth="yes"/>
      <point x="795" y="1014"/>
      <point x="659" y="798"/>
      <point x="583" y="699" type="qcurve" smooth="yes"/>
      <point x="53" y="90" type="line"/>
    </contour>
  </outline>
</glyph>
